<?xml version="1.0" standalone="no"?>
<!DOCTYPE svg PUBLIC "-//W3C//DTD SVG 20010904//EN"
 "http://www.w3.org/TR/2001/REC-SVG-20010904/DTD/svg10.dtd">
<svg version="1.0" xmlns="http://www.w3.org/2000/svg"
 width="16.000000pt" height="16.000000pt" viewBox="0 0 16.000000 16.000000"
 preserveAspectRatio="xMidYMid meet">
<metadata>
Created by potrace 1.11, written by Peter Selinger 2001-2013
</metadata>
<g transform="translate(0.000000,16.000000) scale(0.002059,-0.002059)"
fill="#000000" stroke="none">
<path d="M3578 7648 l-283 -119 -312 5 -311 5 -254 -145 c-139 -81 -372 -209
-518 -286 -146 -77 -269 -144 -274 -148 -4 -4 -65 -136 -136 -292 l-127 -283
-230 -180 -230 -180 -166 -235 c-110 -155 -236 -316 -370 -472 l-203 -237 -52
-299 -52 -299 112 -294 112 -294 3 -295 4 -295 -61 -300 c-33 -164 -60 -307
-60 -316 0 -10 75 -131 166 -269 114 -174 219 -318 337 -463 95 -116 256 -324
360 -462 l187 -250 258 -145 258 -145 208 -217 c114 -120 208 -218 209 -218 1
0 128 -25 282 -56 263 -52 293 -56 495 -64 118 -5 251 -9 295 -10 l80 0 274
-195 c151 -107 278 -195 283 -195 4 0 133 70 285 155 l276 155 296 11 296 11
250 85 c138 47 264 91 280 98 20 8 97 92 224 243 l194 232 226 167 c124 92
336 243 471 335 l245 168 206 225 206 225 6 121 c4 67 7 210 7 318 l0 196 165
266 164 267 -89 290 c-50 160 -90 300 -90 311 0 11 48 149 107 308 58 158 106
293 106 299 0 18 -278 534 -424 786 -78 134 -205 365 -284 513 -92 175 -197
356 -300 515 l-159 245 -290 95 -290 95 -221 181 c-140 115 -309 240 -465 346
-238 161 -253 169 -523 292 l-277 127 -299 42 -299 43 -284 -118z m612 -1777
c161 -36 347 -121 415 -191 l38 -39 -56 -61 c-357 -386 -971 -1533 -1163
-2174 -39 -130 -74 -297 -74 -353 l0 -36 93 7 c94 6 225 25 687 96 158 25 320
44 400 47 l135 6 53 -213 c29 -117 50 -215 47 -218 -2 -3 -53 -9 -112 -14 -60
-5 -201 -20 -315 -33 -688 -82 -1008 -102 -1133 -70 -142 36 -341 161 -430
271 l-40 49 2 121 c7 406 217 1038 594 1784 217 432 470 843 608 993 43 46 45
47 105 47 33 0 99 -9 146 -19z"/>
</g>
</svg>
