<svg version="1.1" baseProfile="full" xmlns="http://www.w3.org/2000/svg" width="511" height="325.5" viewBox="1 8.5 512 334">
	<path fill="#ff328c" d="M441.402,63.53c0.024-0.145,0.066-0.289,0.079-0.433c0.042-0.446-0.007-0.897-0.061-1.348 c-0.012-0.114,0.006-0.223-0.012-0.337c-0.108-0.596-0.308-1.18-0.603-1.739c-0.048-0.097-0.114-0.187-0.168-0.283 c-0.013-0.012-0.013-0.03-0.018-0.048c-0.007-0.012-0.024-0.018-0.03-0.036c-0.042-0.066-0.079-0.139-0.121-0.199 c-0.373-0.547-0.824-0.999-1.33-1.384c-0.114-0.084-0.247-0.132-0.367-0.21c-0.445-0.295-0.915-0.536-1.42-0.698 c-0.223-0.072-0.445-0.108-0.675-0.15c-0.438-0.09-0.878-0.133-1.336-0.121c-0.24,0.006-0.47,0.019-0.71,0.054 c-0.156,0.024-0.307,0-0.464,0.036L84.803,128.834c-2.486,0.518-4.387,2.534-4.743,5.05c-0.355,2.516,0.903,4.983,3.148,6.169 l100.104,52.803l17.557,97.425c-0.012,0.072,0.006,0.15,0,0.223c-0.06,0.481-0.066,0.951-0.006,1.427 c0.03,0.24,0.06,0.469,0.12,0.704c0.138,0.571,0.361,1.107,0.662,1.612c0.06,0.097,0.06,0.211,0.126,0.308 c0.018,0.03,0.048,0.054,0.072,0.078c0.078,0.114,0.187,0.205,0.277,0.319c0.283,0.349,0.578,0.667,0.915,0.938 c0.054,0.042,0.09,0.108,0.151,0.151c0.09,0.065,0.192,0.084,0.283,0.144c0.367,0.241,0.747,0.439,1.15,0.596 c0.162,0.061,0.312,0.133,0.481,0.181c0.542,0.156,1.102,0.265,1.667,0.265c0.006,0,0.012,0,0.018,0l0,0l0,0 c0.024,0,0.048-0.012,0.072-0.012c0.102,0.006,0.205,0.012,0.307,0.012c1.667,0,3.172-0.746,4.286-1.896l66.683-44.455 l69.817,45.382c0.986,0.638,2.13,0.969,3.279,0.969c0.633,0,1.276-0.102,1.896-0.307c1.733-0.578,3.118-1.914,3.75-3.635 l84.238-228.647c0.079-0.205,0.146-0.416,0.199-0.632c0.024-0.09,0.03-0.181,0.048-0.265 C441.379,63.675,441.391,63.603,441.402,63.53z M371.693,101.948L227.285,208.125c-0.234,0.175-0.421,0.392-0.625,0.596 c-0.078,0.072-0.157,0.132-0.223,0.21c-0.126,0.139-0.241,0.277-0.355,0.428c-0.109,0.144-0.193,0.295-0.289,0.445 c-0.223,0.361-0.41,0.734-0.554,1.131c-0.03,0.078-0.078,0.139-0.102,0.216c-0.006,0.024-0.03,0.036-0.036,0.06l-16.551,53.79 l-13.115-72.772L371.693,101.948z M217.878,276.582l16.407-54.193l25.544,16.606l7.307,4.749l-24.822,16.546L217.878,276.582z M393.241,77.386L188.766,182.118L103.66,137.23L393.241,77.386z M348.189,282.06l-92.719-60.26l-14.041-9.13L422.919,79.222 L348.189,282.06z"/>
</svg>
