<?xml version="1.0" encoding="UTF-8" standalone="no"?>
<!-- Created with Inkscape (http://www.inkscape.org/) -->

<svg
   xmlns:dc="http://purl.org/dc/elements/1.1/"
   xmlns:cc="http://creativecommons.org/ns#"
   xmlns:rdf="http://www.w3.org/1999/02/22-rdf-syntax-ns#"
   xmlns:svg="http://www.w3.org/2000/svg"
   xmlns="http://www.w3.org/2000/svg"
   xmlns:sodipodi="http://sodipodi.sourceforge.net/DTD/sodipodi-0.dtd"
   xmlns:inkscape="http://www.inkscape.org/namespaces/inkscape"
   width="600"
   height="603.99994"
   id="svg2"
   version="1.1"
   inkscape:version="0.91 r13725"
   sodipodi:docname="map.svg">
  <title
     id="title3804">Map of Europe</title>
  <defs
     id="defs4" />
  <sodipodi:namedview
     id="base"
     pagecolor="#ffffff"
     bordercolor="#666666"
     borderopacity="1.0"
     inkscape:pageopacity="0.0"
     inkscape:pageshadow="2"
     inkscape:zoom="5.6"
     inkscape:cx="196.66295"
     inkscape:cy="197.12729"
     inkscape:document-units="px"
     inkscape:current-layer="svg2"
     showgrid="false"
     inkscape:window-width="1855"
     inkscape:window-height="1056"
     inkscape:window-x="65"
     inkscape:window-y="24"
     inkscape:window-maximized="1"
     fit-margin-top="0"
     fit-margin-left="0"
     fit-margin-right="0"
     fit-margin-bottom="0" />
  <metadata
     id="metadata7">
    <rdf:RDF>
      <cc:Work
         rdf:about="">
        <dc:format>image/svg+xml</dc:format>
        <dc:type
           rdf:resource="http://purl.org/dc/dcmitype/StillImage" />
        <dc:title>Map of Europe</dc:title>
        <dc:creator>
          <cc:Agent>
            <dc:title>Berteh</dc:title>
          </cc:Agent>
        </dc:creator>
        <dc:rights>
          <cc:Agent>
            <dc:title>CC0</dc:title>
          </cc:Agent>
        </dc:rights>
        <cc:license
           rdf:resource="http://creativecommons.org/licenses/publicdomain/" />
        <dc:subject>
          <rdf:Bag>
            <rdf:li>europe</rdf:li>
            <rdf:li>europa</rdf:li>
            <rdf:li>map</rdf:li>
            <rdf:li>carte</rdf:li>
            <rdf:li>country</rdf:li>
            <rdf:li>continent</rdf:li>
          </rdf:Bag>
        </dc:subject>
      </cc:Work>
      <cc:License
         rdf:about="http://creativecommons.org/licenses/publicdomain/">
        <cc:permits
           rdf:resource="http://creativecommons.org/ns#Reproduction" />
        <cc:permits
           rdf:resource="http://creativecommons.org/ns#Distribution" />
        <cc:permits
           rdf:resource="http://creativecommons.org/ns#DerivativeWorks" />
      </cc:License>
    </rdf:RDF>
  </metadata>
  <g
     inkscape:label="Layer 1"
     inkscape:groupmode="layer"
     id="layer1"
     transform="translate(-67.065272,53.019105)">
    <path
       style="fill:#FFAA5C"
       d="m 491.95742,548.895 c -2.17147,-1.2955 -5.79634,-2.89 -8.05529,-3.5434 -5.19858,-1.5036 -6.67967,-2.2732 -6.67967,-3.4709 0,-1.3087 1.02091,-2.3551 2.28879,-2.3462 0.57992,0.01 2.79026,0.6255 4.9119,1.3809 2.36264,0.8412 5.85059,1.513 9.00084,1.7336 4.09667,0.2868 18.96275,3.0315 19.72025,3.6408 0.0966,0.078 0.0345,0.6456 -0.13845,1.262 -0.51384,1.8338 -2.82328,2.6295 -8.05217,2.7741 -2.711,0.075 -5.85584,0.3136 -6.98862,0.5304 -1.77979,0.3407 -2.59574,0.074 -6.00758,-1.9613 z m 35.25834,-14.7283 c -0.89634,-1.0154 -0.77546,-1.895 0.72727,-5.2923 1.85963,-4.2042 2.65406,-5.0788 4.61337,-5.0788 2.0472,0 3.30018,1.2939 3.30018,3.4078 0,2.0214 -1.12449,3.8158 -3.73212,5.9557 -2.20526,1.8097 -3.8946,2.1564 -4.9087,1.0076 z m 103.16757,-2.651 c -0.22703,-5.6722 0.0205,-7.1353 1.62467,-9.6065 1.68836,-2.6008 2.02484,-5.1197 0.83348,-6.2397 -0.8882,-0.8351 -1.80047,-0.3606 -4.84358,2.5195 -3.16451,2.995 -4.718,3.1804 -8.43824,1.0069 -4.28151,-2.5015 -5.2842,-2.3837 -7.80984,0.9171 -7.02586,9.1819 -8.83081,10.1862 -16.18707,9.0065 -5.01311,-0.8038 -9.39505,-2.9122 -15.57153,-7.492 -2.17564,-1.6132 -4.83734,-3.1054 -5.91488,-3.316 -1.07757,-0.2107 -3.28546,-0.9282 -4.90649,-1.5947 -3.90693,-1.6063 -4.51054,-1.2801 -4.51054,2.4376 0,4.0314 -0.58224,5.0363 -3.20791,5.5366 -1.20591,0.2297 -2.86403,1.0563 -3.68465,1.8368 -1.24813,1.1871 -1.83663,1.3589 -3.60034,1.0512 -3.53394,-0.6165 -6.56444,-2.7078 -8.7768,-6.0568 l -2.03949,-3.0873 -2.45302,0.3686 c -1.62668,0.2445 -3.45201,0.046 -5.41835,-0.5887 -3.70166,-1.1951 -4.0169,-1.5259 -2.72032,-2.8551 2.16931,-2.224 0.60856,-3.6254 -3.29838,-2.9618 -1.1991,0.2037 -2.81124,0.099 -3.58249,-0.2335 -1.17756,-0.5072 -1.37631,-0.898 -1.24068,-2.4396 0.1343,-1.5266 -0.0982,-1.9995 -1.3815,-2.8091 -2.12265,-1.3392 -2.93484,-3.393 -2.31306,-5.8491 0.6247,-2.46743 0.13656,-3.15106 -3.12674,-4.37893 -4.37092,-1.64458 -4.94744,-4.38744 -1.35991,-6.4696 0.911,-0.5287 1.80856,-1.2287 1.99454,-1.55543 0.51799,-0.91016 -0.089,-2.15651 -1.05026,-2.15651 -2.76604,0 -4.15856,-4.02457 -2.11675,-6.11778 1.24012,-1.27141 1.29073,-2.20993 0.2189,-4.06292 -0.51156,-0.88446 -0.74836,-2.32524 -0.64292,-3.91237 0.16546,-2.49164 0.15199,-2.51378 -1.63332,-2.68385 -0.99009,-0.0943 -3.24672,-0.87367 -5.01475,-1.73192 -3.77253,-1.83131 -4.10532,-3.02464 -1.70661,-6.11943 0.82936,-1.07009 1.6668,-2.66263 1.86097,-3.53905 0.60022,-2.70915 3.32178,-4.53248 7.5502,-5.05826 2.1328,-0.26523 4.09653,-0.23656 4.59748,0.0672 1.37364,0.83276 5.77835,0.62476 6.8872,-0.32529 1.4065,-1.20515 4.03547,-1.09304 6.39888,0.2728 1.10902,0.64091 2.71554,1.16529 3.57006,1.16529 1.2432,0 1.60702,-0.29109 1.82068,-1.45663 0.1468,-0.80114 0.38904,-2.12101 0.5383,-2.93305 0.4053,-2.20513 2.30042,-2.95983 4.71219,-1.87658 2.13299,0.95804 3.92242,0.57158 4.44096,-0.95921 0.18398,-0.54317 -0.0478,-1.1255 -0.57137,-1.43573 -1.41252,-0.83684 -6.12676,-1.82569 -8.74985,-1.83538 -3.30738,-0.0121 -4.12018,-0.64254 -3.23758,-2.51075 1.43818,-3.04417 5.72484,-3.60941 9.61285,-1.26754 2.30776,1.39001 2.82025,1.45661 11.20664,1.45661 8.23242,0 8.95135,-0.0887 11.36733,-1.40512 1.41843,-0.77281 2.99889,-1.5576 3.51204,-1.74396 0.52775,-0.19166 0.86845,-0.78344 0.78436,-1.36245 -0.2155,-1.48377 0.49273,-2.47695 1.78474,-2.50267 0.68237,-0.0136 1.53266,-0.73472 2.1556,-1.82812 0.75699,-1.32882 2.12528,-2.31536 5.18105,-3.7356 5.5474,-2.57823 11.1217,-3.35095 18.22857,-2.52683 2.9662,0.34396 7.40271,0.80578 9.85892,1.02623 3.69069,0.33127 4.68949,0.63891 5.75467,1.77247 1.0205,1.08606 1.69695,1.31634 3.24914,1.10613 3.10742,-0.42079 5.01245,0.48112 7.09371,3.35839 2.7124,3.74977 5.37799,5.15526 8.9788,4.73427 2.44016,-0.28528 3.17385,-0.12089 5.06593,1.13523 1.45371,0.9651 4.08252,1.82971 7.66531,2.52115 4.82076,0.93033 5.96594,0.96492 9.87817,0.29832 2.43388,-0.4147 5.09227,-1.0439 5.90759,-1.3982 0.81527,-0.35431 1.91466,-0.48875 2.44309,-0.29877 0.92539,0.33271 0.96073,1.76946 0.96073,39.05223 0,21.28871 -0.10899,38.70681 -0.24215,38.70681 -0.1331,0 -1.29397,-0.8399 -2.57954,-1.8664 -2.26801,-1.811 -2.40812,-1.845 -4.7184,-1.145 -1.3095,0.3967 -2.98398,1.1997 -3.72102,1.7844 -1.89372,1.5022 -6.53291,3.1281 -7.71388,2.7035 -0.54658,-0.1965 -1.85602,-1.1335 -2.9098,-2.0822 -2.58905,-2.3308 -3.69738,-2.232 -4.67431,0.4166 -0.76867,2.0841 -0.74502,5.4026 0.0582,8.1564 0.30402,1.0424 0.0645,1.4432 -1.35194,2.2629 -0.94673,0.5478 -2.69984,2.0098 -3.89581,3.2487 -1.32114,1.3686 -2.68355,2.2526 -3.47177,2.2526 -1.18923,0 -1.3065,-0.2306 -1.40809,-2.7676 z m -524.92238,-3.7258 c -3.36887,-1.7531 -4.34839,-3.9539 -3.98211,-8.947 0.36414,-4.964 -0.31364,-6.3869 -3.468184,-7.2812 -1.19188,-0.3379 -2.92715,-1.0009 -3.85612,-1.4733 -1.97565,-1.0048 -4.11787,-1.0982 -6.05462,-0.264 -0.7598,0.3272 -2.87504,0.8346 -4.70055,1.1274 -1.82551,0.2929 -4.5713,1.1204 -6.10174,1.839 -2.39383,1.124 -2.95554,1.2017 -4.02001,0.5564 -2.19082,-1.3282 -2.64781,-3.0583 -1.89731,-7.1828 0.36384,-1.9995 0.84174,-5.3397 1.06202,-7.42267 0.22027,-2.08296 0.75755,-5.45025 1.19396,-7.48288 0.43641,-2.03257 0.66849,-4.06454 0.51575,-4.5155 -0.3227,-0.95259 -1.50321,-1.08886 -1.97303,-0.22771 -0.58839,1.07848 -1.28065,-0.0478 -1.28065,-2.08315 0,-1.72258 -0.17219,-2.00488 -1.22286,-2.00488 -1.80596,0 -2.57882,-1.4747 -2.60834,-4.97692 -0.0238,-2.82077 0.15518,-3.33513 1.85645,-5.33581 1.9627,-2.30823 2.99567,-5.39907 3.00055,-8.97826 0.002,-1.19822 0.64388,-3.46374 1.49283,-5.26592 0.81947,-1.7396 2.24086,-5.51271 3.15864,-8.38471 1.43863,-4.50187 1.65961,-5.92174 1.60286,-10.29872 -0.0362,-2.7923 -0.29469,-6.20079 -0.5744,-7.57442 -0.67616,-3.32051 -0.66374,-8.45373 0.0293,-12.11447 0.69001,-3.64476 0.41735,-4.99862 -1.58006,-7.84588 -3.20388,-4.56702 -1.43297,-8.00166 5.10467,-9.90037 1.64994,-0.47922 2.51529,-1.13003 3.10493,-2.33516 1.99486,-4.07727 5.91194,-5.16694 9.51236,-2.6462 2.19357,1.53574 4.69444,1.63093 7.983134,0.30379 3.98107,-1.60655 9.42146,-1.74741 14.65852,-0.37952 8.0198,2.09472 19.65128,3.70653 27.77407,3.84877 4.24325,0.0744 8.75653,0.40828 10.02952,0.74218 1.27297,0.33388 4.42069,0.62936 6.99493,0.6566 4.21203,0.0445 4.78864,-0.0809 5.7617,-1.2543 1.60941,-1.9407 2.52727,-4.88525 2.94413,-9.44502 0.20506,-2.24319 0.69096,-4.78653 1.07973,-5.65187 0.38877,-0.86534 0.70687,-2.51227 0.70687,-3.65984 0,-1.31717 0.28446,-2.21014 0.7715,-2.42184 0.98803,-0.42951 0.97727,-1.5658 -0.036,-3.78521 -0.72198,-1.58161 -0.72672,-2.05617 -0.0448,-4.48659 0.41941,-1.49484 0.96682,-3.50447 1.21643,-4.46583 0.40616,-1.56418 0.65892,-1.74049 2.40421,-1.67698 1.94095,0.0706 1.94877,0.0616 1.62821,-1.87421 -0.17719,-1.06984 -0.88894,-3.0682 -1.5817,-4.44082 -0.69275,-1.3726 -1.26232,-3.25372 -1.26573,-4.18026 -0.004,-1.21255 -0.53088,-2.19215 -1.87859,-3.49589 -5.48637,-5.30726 -9.44299,-10.76464 -9.44299,-13.0247 0,-0.78372 0.47962,-2.18794 1.06582,-3.12052 1.77828,-2.82908 1.2209,-3.67953 -2.65992,-4.05848 -2.38434,-0.23282 -3.88332,-0.73374 -5.077,-1.69661 -0.93157,-0.75145 -2.94869,-1.69672 -4.48248,-2.10062 -1.53379,-0.40391 -3.64421,-1.47554 -4.68983,-2.38141 -1.6324,-1.41426 -2.46195,-1.67632 -5.86873,-1.85397 -4.71887,-0.24607 -5.81571,-1.10607 -4.08006,-3.19895 1.25546,-1.51389 1.46738,-4.17832 0.37026,-4.65525 -0.40364,-0.17545 -1.01061,0.0587 -1.34882,0.52032 -1.4044,1.91696 -2.98254,-0.0255 -2.34791,-2.89003 0.34406,-1.55287 1.86099,-2.43395 5.15344,-2.99325 1.31992,-0.22424 3.25954,-1.07061 4.31028,-1.88085 1.22193,-0.94227 2.551,-1.44703 3.68791,-1.40059 0.97762,0.04 2.55313,-0.44584 3.50115,-1.07948 0.94802,-0.63363 2.13299,-1.15205 2.63329,-1.15205 1.30947,0 3.03582,2.3329 3.23365,4.36984 0.15947,1.64188 0.29464,1.74092 2.22711,1.6321 7.16598,-0.40353 11.18109,-0.77539 11.60931,-1.07519 0.27054,-0.18942 0.48223,-1.70316 0.47041,-3.36389 -0.012,-1.66072 -0.0145,-3.80606 -0.005,-4.76742 0.008,-0.96138 -0.12177,-3.39666 -0.28954,-5.41174 -0.31485,-3.78163 0.18208,-5.36724 1.68209,-5.36724 0.99911,0 5.3069,4.13197 5.3069,5.09031 0,0.42075 0.54686,1.00053 1.21526,1.28841 1.49337,0.64319 13.46917,1.06369 13.97774,0.49078 0.20194,-0.22746 0.45296,-1.24849 0.55785,-2.26897 0.21339,-2.07599 1.01153,-3.43524 2.0172,-3.43524 0.36799,0 1.3877,-0.68501 2.26604,-1.52225 0.87834,-0.83723 2.56947,-1.76978 3.75808,-2.0723 3.14932,-0.80158 5.37909,-2.95988 6.08384,-5.88878 1.49474,-6.21213 2.23485,-8.24213 3.689,-10.1183 1.83982,-2.37374 3.91925,-3.70427 5.78927,-3.70427 0.73953,0 2.42904,-0.48729 3.75445,-1.08288 5.09216,-2.2882 6.31024,-2.54535 10.13371,-2.13948 3.98591,0.42311 8.47768,-0.0655 8.47768,-0.92233 0,-0.28407 -0.54969,-0.51648 -1.22155,-0.51648 -2.31709,0 -4.43612,-0.73059 -4.43612,-1.52945 0,-0.53574 0.63894,-0.80411 1.92875,-0.81007 2.17828,-0.0106 2.95741,-0.46823 2.95741,-1.73902 0,-0.6012 0.70993,-0.96491 2.27458,-1.16529 1.251,-0.16024 2.36969,-0.61907 2.48595,-1.01963 0.2443,-0.84172 -0.12657,-0.91003 -4.06005,-0.74804 -1.6653,0.0687 -3.04853,-0.15307 -3.24907,-0.52064 -0.19326,-0.35424 0.60817,-1.61239 1.79469,-2.81742 3.04392,-3.09146 7.00341,-8.95962 7.39758,-10.96362 0.18405,-0.93578 1.20727,-3.40565 2.27377,-5.48862 1.55155,-3.03025 2.19058,-3.78719 3.19719,-3.78719 1.1213,0 1.25168,0.23752 1.19939,2.18498 -0.0356,1.32525 -0.59213,3.05701 -1.41442,4.40118 -1.52622,2.49483 -1.72267,4.28781 -0.58683,5.35569 0.76738,0.72143 1.08856,0.56676 4.11949,-1.98391 0.95015,-0.79961 2.31227,0.0417 2.31227,1.42811 0,0.85314 0.2739,1.16746 0.90008,1.03294 1.29621,-0.27846 1.42691,-2.9309 0.20611,-4.18245 -0.77414,-0.79365 -0.93989,-1.53121 -0.73432,-3.26749 0.18089,-1.52774 0,-2.67188 -0.56751,-3.58974 -1.02682,-1.6607 -1.06386,-3.42073 -0.10338,-4.9095 0.58962,-0.91391 1.65089,-1.21446 5.52909,-1.56582 9.61587,-0.87118 11.92517,-1.34945 14.40383,-2.98316 2.0615,-1.35876 2.90366,-1.56571 5.91484,-1.45348 2.01178,0.0749 4.00658,-0.17274 4.67141,-0.5801 0.88439,-0.54188 1.62044,-0.55476 3.0953,-0.0542 1.06424,0.3612 2.62517,0.56791 3.46871,0.45933 1.50524,-0.19374 1.54143,-0.27794 1.95081,-4.53906 0.33777,-3.51576 0.25656,-4.74497 -0.4269,-6.46191 -0.77324,-1.94246 -0.77586,-2.30506 -0.0314,-4.32355 1.36087,-3.68963 1.10596,-4.66983 -1.72825,-6.64535 -3.05074,-2.12645 -3.75482,-3.44986 -3.54919,-6.67119 0.14703,-2.3036 0.0513,-2.4923 -1.75342,-3.45556 -2.33539,-1.24653 -2.67958,-2.53676 -2.20553,-8.26751 0.628,-7.59181 2.65316,-15.00494 4.38617,-16.05562 1.42849,-0.86603 2.79842,-0.29974 5.186,2.1438 2.20049,2.25204 3.04854,2.13148 3.04854,-0.43337 0,-2.13728 1.60953,-4.03118 3.47174,-4.08511 2.0276,-0.0587 3.24048,-0.71432 3.91326,-2.11526 0.72641,-1.51267 6.03285,-6.0808 6.7496,-5.81052 0.28816,0.10867 0.60677,0.70021 0.70802,1.31459 0.10125,0.61435 0.61411,1.57771 1.1397,2.1408 1.20779,1.29399 0.91123,2.13548 -1.33507,3.7884 -1.20561,0.88712 -1.78889,1.76299 -1.78889,2.68626 0,0.75347 -0.13384,2.52083 -0.29744,3.9275 -0.38871,3.34265 0.49461,4.68167 3.38361,5.1292 2.89627,0.44865 3.48386,1.54249 2.58145,4.80569 -1.0318,3.73113 -1.72485,4.15762 -4.38078,2.6959 -2.6303,-1.44763 -4.15243,-1.0861 -3.6146,0.85851 0.73484,2.65689 0.5469,3.58396 -0.88683,4.37465 -1.85707,1.02412 -1.79879,2.24307 0.12857,2.68957 0.84864,0.1966 2.26557,0.52301 3.14871,0.72534 1.06055,0.24298 1.89002,0.95823 2.4431,2.10667 0.46055,0.95633 1.59815,2.79365 2.52799,4.08293 1.87264,2.59646 1.88938,3.31125 0.10139,4.3295 -0.97037,0.55263 -1.57895,0.51215 -3.04538,-0.20261 -3.97633,-1.93805 -7.44876,-3.09881 -7.86377,-2.62866 -0.62794,0.71132 0.42226,3.46594 2.19184,5.74906 0.83862,1.08199 1.52476,2.49975 1.52476,3.15058 0,1.35002 0.9108,3.51922 1.74858,4.16453 0.31127,0.23977 1.49259,0.28523 2.62517,0.10112 1.71584,-0.27904 2.24506,-0.10881 3.17341,1.02071 0.61279,0.74557 1.19054,2.14216 1.28392,3.10352 0.16148,1.66249 0.29844,1.75642 2.80146,1.92136 2.20036,0.14504 2.88688,-0.0699 4.18891,-1.31095 1.25626,-1.19747 2.10468,-1.48438 4.38962,-1.48438 2.70831,0 2.88035,-0.0922 3.92804,-2.10366 0.93284,-1.79105 1.30349,-2.05721 2.49389,-1.79092 0.94407,0.21118 2.1157,-0.15931 3.60719,-1.14073 1.21492,-0.79943 2.48123,-1.3507 2.81403,-1.22504 0.33277,0.12572 1.07524,1.25489 1.64992,2.50943 0.89334,1.95013 1.63188,2.56596 5.09236,4.24621 5.40647,2.62513 7.48488,2.89455 10.5132,1.36278 1.32526,-0.67032 3.57154,-1.47804 4.99172,-1.79491 1.42018,-0.31687 4.63519,-1.64552 7.14447,-2.95256 3.80005,-1.97941 4.87248,-2.30645 6.4187,-1.95739 2.44222,0.55132 3.03555,0.37589 5.18789,-1.53399 3.33973,-2.9634 4.3865,-3.3581 11.84136,-4.46491 2.04346,-0.30339 2.6458,-0.10218 5.14335,1.71756 1.55586,1.13367 3.72065,2.91955 4.81067,3.96861 1.68712,1.62379 2.46588,1.94232 5.23757,2.14223 2.94857,0.21271 3.37973,0.0943 4.57006,-1.25406 0.7229,-0.8189 1.60493,-2.71955 1.96003,-4.22365 0.78292,-3.31591 1.96929,-4.29835 5.91803,-4.90082 2.71014,-0.4135 5.34965,-1.25066 7.33502,-2.32645 1.40496,-0.7613 1.18971,-3.64242 -0.48084,-6.4356 -1.84307,-3.08169 -1.91107,-3.9474 -0.54782,-6.97451 0.81559,-1.81095 1.02866,-3.43401 1.02866,-7.83418 0,-3.0525 -0.28334,-6.75007 -0.62963,-8.21682 -0.59268,-2.51026 -0.54212,-2.85623 0.86135,-5.8928 1.57138,-3.39997 1.77414,-3.5587 8.038,-6.29382 5.71041,-2.49345 9.17913,-1.69615 14.25032,3.27541 0.92919,0.91096 2.02791,1.6563 2.44159,1.6563 0.41369,0 1.64881,0.91768 2.74468,2.03928 1.09596,1.12158 2.36141,2.03926 2.81223,2.03926 1.17366,0 1.88453,-1.84624 1.88453,-4.89443 0,-1.45225 0.38759,-3.5612 0.8613,-4.68654 0.70206,-1.66778 0.75668,-2.43232 0.29528,-4.13525 -0.40036,-1.47776 -0.40793,-2.60284 -0.0257,-3.84432 0.72404,-2.35272 -0.0543,-3.30925 -1.91244,-2.3502 -1.98853,1.02638 -2.67865,0.85117 -4.18344,-1.06203 -0.75503,-0.95996 -2.60843,-2.53535 -4.11862,-3.50086 -3.10716,-1.98647 -3.49882,-3.38435 -1.59238,-5.68316 0.63436,-0.76498 1.61804,-2.48611 2.18591,-3.82476 0.64842,-1.5286 1.92099,-3.1066 3.42119,-4.2424 2.04376,-1.54734 3.0464,-1.86862 6.94352,-2.2249 2.50512,-0.22905 6.29066,-0.79169 8.4123,-1.25032 5.35761,-1.1582 6.71387,-1.07413 14.74288,0.91384 3.88275,0.96136 8.05005,1.74795 9.26063,1.74795 1.90525,0 2.30413,-0.22562 2.96735,-1.67853 1.05645,-2.31436 3.71612,-4.73059 5.20708,-4.73059 0.68149,0 2.27943,0.31522 3.55101,0.70049 2.1241,0.64356 2.44005,0.59327 3.88703,-0.61866 1.15458,-0.96699 2.56463,-1.40852 5.28185,-1.65395 4.06854,-0.36746 5.50693,-0.94603 5.50693,-2.2151 0,-1.59318 -1.90262,-2.07416 -6.80217,-1.71955 -4.73307,0.34255 -4.79201,0.33013 -7.54384,-1.58951 -1.52542,-1.06412 -2.93459,-2.32804 -3.13148,-2.80874 -1.59324,-3.88922 -1.94212,-4.36915 -3.55795,-4.89412 -1.58848,-0.51606 -1.83469,-0.41216 -3.07542,1.29785 -0.74178,1.02236 -1.71788,1.85648 -2.16905,1.85358 -0.45123,-0.003 -1.2393,0.51914 -1.75132,1.16005 -1.10443,1.38247 -2.26331,1.48139 -3.63063,0.30985 -1.31736,-1.12876 -2.81083,-1.10923 -4.27936,0.056 -0.9937,0.78847 -1.52198,0.83761 -3.13153,0.29133 -2.81659,-0.95595 -3.97522,-0.82542 -6.98357,0.78678 -2.08085,1.11512 -3.43904,1.42395 -5.96448,1.35618 -3.33247,-0.0893 -5.33128,0.85229 -10.3156,4.86009 -1.21752,0.979 -2.16386,1.09577 -7.71501,0.95203 -6.31418,-0.1635 -6.32759,-0.16684 -6.50273,-1.62046 -0.0965,-0.80113 -0.53331,-1.91032 -0.97069,-2.46484 -1.04497,-1.32494 -4.1475,-1.96958 -5.35788,-1.11328 -1.4298,1.01152 -1.8585,0.85267 -4.49493,-1.66571 -1.66582,-1.59116 -2.9313,-2.33058 -3.98872,-2.33058 -1.58068,0 -2.77647,-1.12656 -4.46203,-4.2037 -1.05497,-1.92587 -1.08155,-3.51963 -0.10978,-6.57529 1.30342,-4.09856 0.99133,-8.03845 -1.10279,-13.92084 -1.43803,-4.03954 -1.89857,-6.17668 -1.92874,-8.95113 -0.039,-3.6098 -0.0175,-3.66661 2.27484,-5.94968 1.27298,-1.26778 4.16611,-3.41111 6.42917,-4.76293 2.26308,-1.35183 4.98262,-3.48085 6.04343,-4.73119 1.63692,-1.92937 1.92875,-2.66409 1.92875,-4.85625 0,-2.27537 0.19391,-2.71651 1.62843,-3.70475 0.89562,-0.61702 2.7646,-1.43061 4.15331,-1.808 1.83135,-0.49767 2.67958,-1.07085 3.08817,-2.08673 0.40416,-1.0048 1.36303,-1.66394 3.39317,-2.33251 1.93688,-0.63784 3.5896,-1.73698 5.2376,-3.48331 1.32438,-1.40325 2.67815,-2.55139 3.00846,-2.55139 0.33034,0 0.86428,-0.65547 1.18652,-1.45661 0.93433,-2.32303 -0.13522,-4.0757 -3.80382,-6.23323 -5.54421,-3.2606 -7.70725,-4.04534 -12.74849,-4.62516 -2.68739,-0.30908 -6.50633,-0.94558 -8.48652,-1.41447 -3.50453,-0.82981 -3.62432,-0.81956 -4.50043,0.38524 -0.49505,0.68076 -0.90739,1.66753 -0.91634,2.19282 -0.0338,1.98231 -2.33501,4.07743 -4.68902,4.26891 l -2.23823,0.18202 0.13789,2.47627 c 0.11791,2.11655 -0.008,2.47624 -0.86058,2.47624 -1.30064,0 -4.16349,2.73988 -4.16349,3.98467 6e-5,0.53231 0.81014,1.70003 1.80018,2.59495 2.0685,1.86968 2.31074,3.57566 0.64292,4.52744 -1.36628,0.77967 -5.91774,6.19497 -6.30606,7.50289 -0.42452,1.43009 -7.16236,4.81364 -10.3806,5.21287 -2.81911,0.34973 -3.31091,0.73755 -3.96206,3.12464 -0.1686,0.61808 -0.78869,1.01963 -1.57465,1.01963 -0.81387,0 -2.33085,1.03024 -4.07501,2.76755 -1.52819,1.52217 -3.83107,3.46862 -5.11758,4.32543 -1.28649,0.85683 -2.94035,2.6368 -3.67522,3.95552 -0.73484,1.31871 -1.90613,2.64316 -2.60289,2.94323 -1.55124,0.66812 -1.60056,1.86435 -0.18388,4.46098 0.94746,1.73662 1.00269,2.20404 0.44187,3.7378 -0.35253,0.96413 -1.30272,2.14064 -2.1115,2.61443 -1.66558,0.9757 -1.88349,2.48924 -0.66241,4.60035 0.58547,1.01227 0.71579,2.09486 0.47298,3.9292 -0.4271,3.2266 0.82803,7.02507 2.62845,7.95434 0.70515,0.36397 2.21225,0.66178 3.34909,0.66178 2.74938,0 3.85062,0.75421 5.0768,3.47685 1.36888,3.03976 2.77185,4.08361 4.95015,3.68319 1.21178,-0.22277 1.74473,-0.096 1.74473,0.415 0,0.40467 0.83266,1.62532 1.85032,2.71259 2.36597,2.5278 2.04148,3.57516 -1.18003,3.80838 -2.29322,0.16602 -2.48255,0.29867 -2.63897,1.84881 -0.1235,1.22379 -0.57008,1.84169 -1.67157,2.31267 -1.76432,0.75439 -1.89085,1.55702 -0.47443,3.00913 1.55643,1.59564 1.32329,3.5076 -0.53398,4.37909 -0.85945,0.40328 -1.80085,1.23738 -2.09196,1.85355 -0.79998,1.69341 -3.10802,1.17059 -3.98089,-0.90179 l -0.6996,-1.6609 -0.84722,1.5385 c -0.46597,0.84617 -2.119,2.39574 -3.67346,3.44345 -3.06621,2.06673 -3.59053,2.9543 -4.87008,8.24489 -0.46507,1.92273 -1.10564,4.09001 -1.42352,4.81618 -0.45572,1.04102 -0.39548,1.75387 0.28484,3.37 1.22121,2.90106 1.09774,3.96689 -0.93733,8.08926 -0.99009,2.00561 -1.80017,4.30409 -1.80017,5.10772 0,2.21498 -4.43912,12.54558 -5.7262,13.3259 -0.70032,0.42459 -2.18158,0.53508 -4.01799,0.29971 -2.67404,-0.34271 -3.0092,-0.25163 -4.15415,1.12899 -1.0672,1.28688 -1.5277,1.44775 -3.2182,1.12421 -4.2878,-0.82063 -6.56875,2.08842 -4.70743,6.00373 0.93602,1.96893 0.93551,2.03137 -0.0231,2.82542 -0.621,0.51441 -2.32376,0.81199 -4.64611,0.81199 -2.01621,0 -4.89786,0.41446 -6.40363,0.92102 -2.62542,0.88322 -2.77989,0.87333 -3.76328,-0.24067 -1.02443,-1.16049 -1.02429,-1.16389 0.13003,-3.2797 1.12374,-2.05973 1.12958,-2.1505 0.21203,-3.29905 -0.51894,-0.64957 -1.56652,-1.59794 -2.32796,-2.10748 -1.61359,-1.07976 -2.65834,-3.33205 -2.23933,-4.82759 0.16128,-0.57563 1.09423,-1.7387 2.07324,-2.5846 1.88589,-1.6295 2.26207,-3.2134 1.03675,-4.36539 -0.40879,-0.38432 -1.48988,-2.05513 -2.40241,-3.71287 -0.91254,-1.65777 -2.40863,-3.9318 -3.32464,-5.05339 -0.91602,-1.1216 -2.84547,-4.60312 -4.28767,-7.7367 -2.30321,-5.00436 -2.58204,-5.98193 -2.29207,-8.03605 0.277,-1.96231 0.1327,-2.57816 -0.89636,-3.82729 -0.67455,-0.81877 -2.03653,-1.95964 -3.02663,-2.53527 -2.98573,-1.73586 -3.844,-3.23008 -3.97049,-6.91257 -0.16372,-4.7659 -0.9394,-9.53596 -1.88891,-11.61597 -0.45482,-0.99636 -0.82694,-2.46457 -0.82694,-3.2627 0,-1.86724 -0.90588,-2.49141 -1.93078,-1.33039 -0.53182,0.60247 -0.92042,2.57908 -1.14956,5.84743 -0.43141,6.1531 -1.31667,7.94655 -3.92249,7.94655 -1.05698,0 -2.39057,0.49436 -3.14352,1.16529 -0.71925,0.64091 -1.62304,1.16529 -2.0084,1.16529 -0.38536,0 -1.56926,0.87325 -2.63089,1.94052 -1.06164,1.0673 -3.042,2.53953 -4.40083,3.27163 -1.66223,0.89558 -3.12414,2.33327 -4.46804,4.39406 -1.83939,2.82061 -2.32848,3.18737 -6.18084,4.63487 -4.04291,1.51913 -4.26296,1.54119 -6.55319,0.65717 -1.30338,-0.50309 -3.36941,-0.91471 -4.5912,-0.91471 -1.81839,0 -2.58466,-0.37179 -4.22386,-2.0494 -1.10137,-1.12717 -3.57159,-2.7779 -5.4894,-3.66828 -1.91781,-0.89039 -3.64913,-2.00014 -3.84736,-2.46612 -2.06807,-4.86144 -2.56464,-6.59973 -2.0514,-7.18111 0.40061,-0.45382 0.80709,-0.42912 1.44356,0.0877 2.55631,2.07592 3.18656,2.15684 4.57228,0.58707 1.3119,-1.48614 1.31414,-1.50439 0.23358,-1.89291 -0.60031,-0.21575 -1.0913,-0.6368 -1.0913,-0.93567 0,-0.6651 1.38659,-2.25297 3.09718,-3.54673 0.89282,-0.67526 1.11478,-1.15311 0.74092,-1.59513 -0.3808,-0.45023 -1.10075,-0.28676 -2.51267,0.57047 -2.23918,1.35954 -3.47374,1.18078 -5.65528,-0.81891 -1.84536,-1.69153 -1.54616,-3.02282 0.94428,-4.20161 3.48808,-1.65098 2.75467,-3.0866 -1.78095,-3.4861 -4.25901,-0.37513 -5.12016,-0.712 -5.12016,-2.00287 0,-1.11248 1.33948,-1.75507 3.68685,-1.76869 0.75479,-0.005 1.73847,-0.16709 2.18591,-0.36162 1.14323,-0.49695 1.01312,-2.39759 -0.21509,-3.14221 -1.39651,-0.84666 -1.29258,-1.66313 0.29897,-2.34859 1.69893,-0.73172 1.37511,-1.83322 -0.71971,-2.44814 -0.90014,-0.26423 -1.66553,-0.86621 -1.7009,-1.33772 -0.0353,-0.47153 -0.12217,-1.11952 -0.19286,-1.43996 -0.0708,-0.32047 -0.15752,-0.85822 -0.19288,-1.19503 -0.0353,-0.3368 -0.87437,-0.99581 -1.86447,-1.46444 -2.20832,-1.04524 -2.26501,-1.75986 -0.24177,-3.04845 1.41962,-0.90416 1.53009,-1.18709 1.24062,-3.17746 -0.29882,-2.05468 -0.23842,-2.18494 1.01328,-2.18494 1.33304,0 1.85784,-1.31036 0.81672,-2.03925 -0.86313,-0.6043 -0.57162,-3.3817 0.58098,-5.53515 1.4496,-2.70839 1.90366,-2.98785 4.18431,-2.57541 1.66434,0.30097 2.1909,0.0972 3.74682,-1.45044 1.14509,-1.13893 2.36596,-1.80063 3.32227,-1.80063 1.14554,0 1.69743,-0.40645 2.27758,-1.67735 0.88616,-1.94127 1.93891,-2.53933 3.62569,-2.05977 0.93335,0.26538 1.46153,-0.0647 2.39663,-1.49739 0.74522,-1.14185 2.81007,-2.72921 5.45259,-4.19168 2.33923,-1.29462 4.37655,-2.58005 4.52737,-2.8565 0.15083,-0.27644 -0.0878,-1.12858 -0.53031,-1.89363 -1.00916,-1.74473 -0.60419,-3.00345 1.24555,-3.87141 0.79119,-0.37125 2.20867,-1.57512 3.14996,-2.67526 1.9541,-2.28391 2.78769,-2.48446 3.55711,-0.85581 0.47745,1.01059 0.97588,1.11847 4.26135,0.92233 4.68239,-0.27953 5.24023,-0.5409 6.64343,-3.11288 2.32239,-4.25679 4.00113,-5.94567 5.91002,-5.94567 1.55684,0 2.47858,-0.75031 7.27598,-5.92289 3.02131,-3.25759 6.16588,-7.21804 6.98793,-8.80101 0.94714,-1.82386 2.36813,-3.48696 3.87922,-4.54024 1.45739,-1.01585 2.86249,-2.6345 3.61371,-4.1629 0.67602,-1.37543 1.84865,-3.41845 2.60585,-4.54003 0.7572,-1.1216 1.88314,-3.50196 2.50207,-5.2897 1.43857,-4.15515 3.51657,-6.99352 6.60098,-9.0164 4.58551,-3.00735 6.40758,-5.01444 7.88392,-8.68437 1.57504,-3.91533 3.11398,-5.74371 6.88509,-8.1801 4.43055,-2.86242 6.87199,-7.11275 4.64235,-8.08198 -1.20918,-0.52563 -7.02509,2.11197 -8.59985,3.90017 -1.2721,1.44453 -1.65012,1.56429 -3.87982,1.22922 -1.92509,-0.28928 -2.62128,-0.16527 -3.15398,0.56183 -0.92951,1.26875 -1.7215,1.17194 -2.53865,-0.31031 -0.87341,-1.58431 -0.12231,-2.23085 2.6062,-2.24359 1.42321,-0.006 2.31395,-0.4551 3.48949,-1.75686 1.20891,-1.33871 2.04888,-1.74795 3.58773,-1.74795 1.95674,0 2.91699,-0.66673 2.3794,-1.65208 -0.14606,-0.26775 -1.43318,-0.21586 -2.86026,0.1153 -1.94305,0.4509 -2.75034,0.42578 -3.21448,-0.10006 -1.09836,-1.24424 0.79154,-2.53898 5.34143,-3.65935 5.59246,-1.37709 5.26451,-1.41704 7.30044,0.8893 1.0753,1.21812 2.51654,2.16145 3.68003,2.40871 1.70443,0.36223 2.07643,0.20777 3.41905,-1.41961 1.48611,-1.80135 3.63801,-2.42606 4.28322,-1.24344 0.39523,0.72443 2.83176,0.74704 3.82442,0.0355 1.08108,-0.77494 -0.009,-2.02146 -2.5109,-2.8705 -2.31494,-0.78569 -2.79487,-1.37575 -2.36551,-2.90826 0.58449,-2.08614 4.3646,-3.06268 7.17312,-1.85307 1.41102,0.60773 2.87971,-0.44239 2.87971,-2.05897 0,-1.55295 1.98075,-3.16294 3.8913,-3.16294 2.17909,0 3.70778,-0.8099 5.10956,-2.70706 0.56576,-0.76572 2.22285,-1.90183 3.68237,-2.52472 2.34377,-1.00025 2.72835,-1.0306 3.29298,-0.2599 0.52612,0.71814 0.39779,1.15823 -0.72491,2.48571 -1.71149,2.02367 -1.72317,2.88173 -0.0457,3.35867 1.81719,0.51667 2.91776,-0.20843 4.9571,-3.26593 1.89327,-2.83849 3.64688,-3.46938 3.90719,-1.40564 0.0845,0.66895 -0.20492,1.55317 -0.64292,1.96494 -2.10677,1.98072 0.009,4.48111 3.24395,3.83282 3.20986,-0.64336 3.41369,-0.81185 4.97835,-4.11557 1.1588,-2.44676 1.7724,-3.18182 2.55393,-3.05949 0.78579,0.123 1.04852,0.64245 1.11291,2.20028 0.0462,1.1216 0.10419,2.38443 0.12857,2.80628 0.0277,0.48489 0.56459,0.6992 1.45876,0.58265 1.27597,-0.16632 1.43032,-0.43683 1.57699,-2.76335 0.0901,-1.42846 0.60965,-3.22283 1.16472,-4.02221 0.91357,-1.31563 0.93326,-1.5623 0.22316,-2.79002 -0.42843,-0.74071 -0.77896,-1.70864 -0.77896,-2.15093 0,-1.37066 1.87492,-2.83236 3.37442,-2.63073 1.97143,0.2651 2.67406,1.73257 1.91711,4.0042 -0.69445,2.08431 -0.42514,3.25933 0.93634,4.08475 1.40389,0.85113 3.68079,-0.67621 5.44552,-3.65286 2.21231,-3.73153 4.55844,-5.31395 7.09981,-4.78867 3.31943,0.68612 4.08049,0.49696 6.92789,-1.72186 2.94251,-2.29294 5.48152,-2.76759 6.0367,-1.12857 0.22224,0.65602 -0.0752,1.27882 -0.90406,1.89362 -3.11393,2.30946 -4.54578,4.26046 -5.4094,7.37078 -0.97596,3.51496 -0.60795,4.72651 1.23444,4.06407 1.36902,-0.49221 7.92657,-6.6372 10.96592,-10.27597 1.6431,-1.96714 2.80195,-2.86472 3.69858,-2.86472 1.94404,0 2.16401,1.05798 0.60363,2.90299 -1.3988,1.65394 -1.58411,3.49466 -0.39687,3.94246 0.6403,0.24153 2.48924,-1.74518 4.58936,-4.93141 0.802,-1.21672 1.8603,-1.88674 3.76817,-2.38561 3.2004,-0.83686 6.68923,-0.90536 6.68923,-0.1313 0,0.30931 -0.69435,1.45824 -1.543,2.55316 -1.80239,2.3254 -1.91647,3.0808 -0.54006,3.57566 0.91053,0.32739 1.67837,-0.0244 5.3648,-2.45841 1.62875,-1.0754 4.51849,-0.88637 7.2313,0.47299 1.78154,0.89273 2.94148,1.10903 4.42497,0.8251 1.57634,-0.30168 2.61725,-0.0598 4.81973,1.1207 1.54511,0.82802 3.2865,1.50549 3.86975,1.50549 1.2971,0 1.34262,0.64699 0.16047,2.27803 -0.67604,0.9327 -1.7851,1.3608 -4.45507,1.71969 -2.76145,0.37118 -3.76606,0.77311 -4.50041,1.80049 -1.26574,1.77072 -1.1911,2.73232 0.29783,3.83748 0.87788,0.65161 1.79092,0.80646 3.10658,0.52687 1.40671,-0.29896 2.10584,-0.1473 2.85334,0.61902 0.66441,0.68115 1.41894,0.89557 2.29392,0.65188 0.71714,-0.19974 1.84349,-0.51637 2.50296,-0.70363 0.80703,-0.22913 1.82811,0.14309 3.12302,1.13861 l 1.92398,1.47906 3.34883,-2.01259 c 2.07323,-1.24592 4.07179,-2.01255 5.24668,-2.01255 2.49061,0 9.11349,2.91264 14.03135,6.17075 4.74926,3.14646 9.66058,4.53627 12.63883,3.5766 4.56405,-1.47065 7.11742,-0.96148 14.58087,2.9076 4.27807,2.2178 10.73936,4.88523 16.7159,6.90087 5.41053,1.82479 11.20774,4.18382 13.03842,5.30566 4.16739,2.55381 8.80268,4.53652 12.69722,5.43119 2.25777,0.51865 3.50492,1.20739 4.86123,2.68465 1.00336,1.09286 2.85497,2.32238 4.11467,2.73227 2.30272,0.74929 2.5961,1.14561 5.42529,7.32884 0.67116,1.46679 -0.5292,3.83393 -2.47003,4.8709 -1.03576,0.55342 -2.62099,2.04614 -3.52262,3.31716 -1.31793,1.8578 -2.1566,2.43617 -4.27704,2.94959 -1.45069,0.35125 -4.44329,1.28381 -6.65025,2.07233 -4.37606,1.56352 -8.72389,1.82558 -14.04765,0.84669 -2.06521,-0.37974 -4.05805,-0.38197 -5.80565,-0.006 -2.42483,0.52093 -3.12747,0.38848 -7.91363,-1.49169 -3.69534,-1.45168 -6.70111,-2.20177 -10.13872,-2.53012 -3.94652,-0.37698 -5.89021,-0.93049 -10.10697,-2.8782 -3.43153,-1.58499 -6.00865,-2.41146 -7.51963,-2.41146 -3.46044,0 -11.16376,-3.05714 -12.34946,-4.90099 -0.77346,-1.20279 -1.40367,-1.50941 -3.11281,-1.51444 -1.17864,-0.003 -3.27918,-0.39675 -4.66784,-0.87396 -3.19957,-1.09955 -4.4187,-1.0978 -4.4187,0.006 0,0.51726 0.47232,0.87487 1.15726,0.87614 1.29916,0.003 3.20224,1.21358 6.81282,4.33566 3.80345,3.28882 5.33921,3.97174 9.77343,4.34591 l 4.1157,0.3473 0.15738,2.03926 c 0.18064,2.34103 1.24264,3.49589 3.21475,3.49589 0.75644,0 1.93118,0.49532 2.61056,1.10071 0.67937,0.60538 2.09931,1.50967 3.15538,2.00953 1.64053,0.77648 1.92012,1.17584 1.92012,2.74227 0,1.00839 0.38184,2.56569 0.84855,3.46066 0.99631,1.91068 0.6315,3.50508 -0.80205,3.50508 -1.85839,0 -1.83223,1.3127 0.0631,3.16876 1.00604,0.98514 2.18242,2.7489 2.61415,3.91944 0.52128,1.41328 2.11974,3.32046 4.75812,5.67707 3.65201,3.2621 4.17932,3.54886 6.52571,3.54886 2.13932,0 2.77348,0.26736 3.91629,1.65103 0.75001,0.90808 1.94223,1.99939 2.64945,2.42516 0.7072,0.42577 2.13543,1.54534 3.17387,2.48792 1.77605,1.61216 2.00153,1.67133 3.80305,0.99781 1.49095,-0.55739 2.49673,-0.56369 4.54121,-0.0284 2.10465,0.55101 3.08564,0.52984 4.94059,-0.10671 2.12127,-0.72786 2.30226,-0.9373 2.16796,-2.50822 -0.46435,-5.43211 -0.34146,-5.15039 -2.47415,-5.67281 -1.10458,-0.27056 -3.0107,-0.34477 -4.2358,-0.1649 -2.71388,0.39846 -4.2017,-0.40168 -4.2017,-2.25968 0,-1.07505 -0.35468,-1.47807 -1.56604,-1.77947 -0.86135,-0.21431 -2.14246,-0.99476 -2.8469,-1.73434 -0.74712,-0.78434 -1.67781,-1.2271 -2.23339,-1.06251 -0.52397,0.1552 -1.11439,-0.0151 -1.31209,-0.37674 -0.62517,-1.14584 0.81214,-2.35583 2.79836,-2.35583 1.26141,0 2.23222,-0.39754 2.84557,-1.1653 1.30393,-1.63221 2.59461,-1.45298 4.19573,0.58265 1.10927,1.41036 1.78644,1.74795 3.506,1.74795 1.17211,0 2.58042,0.38451 3.12957,0.85451 0.61879,0.52959 1.59603,0.73452 2.57028,0.53898 1.09837,-0.22048 2.30638,0.12693 4.01022,1.15316 1.34108,0.80778 3.5269,1.63987 4.85728,1.84912 1.33042,0.20925 3.94128,0.75856 5.80194,1.22071 3.91409,0.97221 5.81424,0.47268 6.71431,-1.76511 0.49495,-1.23057 0.35069,-1.72425 -1.1024,-3.77259 -0.91953,-1.2962 -2.58114,-3.07057 -3.69252,-3.94303 -2.51941,-1.97785 -3.20748,-3.32189 -2.48433,-4.85257 0.82906,-1.7549 8.47858,-7.16585 16.72666,-11.83176 1.13153,-0.6401 2.84673,-1.94462 3.81157,-2.89893 1.58406,-1.56682 2.02252,-1.70989 4.5207,-1.47521 2.32376,0.2183 3.07186,0.59648 4.67495,2.36338 1.23512,1.36135 2.71825,2.30819 4.20358,2.6836 1.64875,0.41673 2.83794,1.24603 4.22264,2.94483 1.85489,2.27565 3.01668,2.76696 4.75553,2.01107 1.26964,-0.55191 0.96963,-1.76133 -0.98659,-3.97736 -0.99009,-1.12161 -1.80018,-2.29234 -1.80018,-2.60167 0,-0.3093 0.66355,-1.09764 1.47455,-1.75183 1.16744,-0.94168 1.53267,-1.76915 1.75338,-3.97255 0.32475,-3.24202 -0.20667,-4.23971 -2.25825,-4.23971 -0.99169,0 -1.92727,-0.57362 -2.8509,-1.74794 -0.75613,-0.96137 -1.6434,-1.74794 -1.97165,-1.74794 -0.32824,0 -1.05742,-0.58995 -1.62036,-1.31097 -0.84578,-1.08324 -1.00651,-2.04467 -0.92545,-5.53515 0.12777,-5.5034 0.0751,-5.25647 1.20782,-5.66373 1.29174,-0.46443 1.79986,-2.06889 0.95744,-3.02321 -0.369,-0.41799 -1.93977,-1.24693 -3.49064,-1.84205 -2.39371,-0.91857 -2.84478,-1.32093 -2.98509,-2.66271 -0.10859,-1.03791 -0.59422,-1.76534 -1.41441,-2.11862 -1.50104,-0.64646 -1.62469,-2.04605 -0.25425,-2.87691 1.53561,-0.93099 2.86628,-0.72091 3.93898,0.62179 1.89374,2.37051 3.74595,3.02765 7.438,2.63894 4.08437,-0.43002 7.59183,0.73125 12.8223,4.24522 1.84327,1.23839 4.04576,2.61019 4.89441,3.04848 1.42275,0.73482 1.55509,1.05966 1.69797,4.16911 l 0.15497,3.37221 -2.06324,-1.19239 c -2.60157,-1.5035 -4.41259,-1.51156 -6.07852,-0.0272 -0.73041,0.65082 -2.08656,1.16528 -3.07176,1.16528 -1.35214,0 -2.08655,0.43419 -3.14526,1.8595 -0.75967,1.02273 -1.38119,2.13705 -1.38119,2.47626 0,0.34079 1.58286,0.77065 3.53743,0.96071 3.35599,0.32631 3.6257,0.46432 5.25794,2.69032 2.11453,2.88373 4.28096,4.04275 5.81651,3.11181 l 1.07532,-0.65194 0,194.04211 c 0,106.72315 -0.10792,194.04208 -0.23983,194.04208 -0.1319,0 -2.96715,-2.2257 -6.3006,-4.94602 -6.66105,-5.43591 -11.54903,-8.56825 -14.99003,-9.60603 -2.79551,-0.84313 -14.51806,-7.78341 -15.74885,-9.32408 -2.29023,-2.86674 -0.30157,-6.42154 3.59237,-6.42154 2.54282,0 2.82688,-0.47042 2.82688,-4.68144 0,-2.78337 0.037,-2.84991 1.92876,-3.44498 1.0608,-0.33372 2.29346,-0.60825 2.73918,-0.61003 1.02687,-0.005 2.82014,-2.1515 3.50374,-4.19564 0.6621,-1.97998 -0.27274,-3.38221 -3.54267,-5.31353 -1.77281,-1.04708 -2.3145,-1.69693 -2.3145,-2.77666 0,-1.30827 0.22944,-1.43058 3.19021,-1.70096 2.78201,-0.25405 3.44006,-0.55887 5.14334,-2.38243 1.07423,-1.1501 3.0487,-2.54665 4.38778,-3.10345 1.33907,-0.55678 2.95923,-1.5165 3.60033,-2.13271 1.12152,-1.07787 1.12975,-1.15191 0.2182,-1.95257 -1.77817,-1.56177 -4.58571,-1.66653 -7.84659,-0.29279 -3.2991,1.38986 -8.47412,2.9296 -13.29389,3.95544 -3.34467,0.71186 -8.75706,2.85168 -13.08319,5.17254 -1.52242,0.81675 -4.22788,1.65616 -6.01199,1.86535 -3.03103,0.35539 -3.39183,0.56026 -5.4972,3.12137 -1.46427,1.78119 -2.68128,2.74103 -3.47553,2.74103 -0.67223,0 -2.07538,0.66973 -3.11809,1.4883 -1.87701,1.47356 -1.93081,1.48018 -5.42813,0.66875 -5.7087,-1.32447 -6.49547,-0.0355 -1.60482,2.62937 1.59675,0.87005 3.15106,2.10655 3.454,2.7478 0.30296,0.64124 1.43767,1.43643 2.52168,1.76708 1.46653,0.44735 2.55008,1.43065 4.23447,3.84272 2.14976,3.07844 2.35426,3.2228 4.06385,2.869 0.9901,-0.20491 3.07315,-0.43437 4.62902,-0.50991 1.55585,-0.0755 3.7877,-0.45091 4.95966,-0.83412 4.2286,-1.38272 5.1432,1.04318 1.21234,3.21556 -1.27297,0.70352 -3.35603,1.46077 -4.62901,1.68279 -1.4357,0.25041 -2.95596,1.03676 -4.00397,2.07111 -0.92921,0.91709 -2.26442,1.66744 -2.9671,1.66744 -0.70268,0 -2.94977,0.66183 -4.99352,1.4707 -2.88943,1.14358 -4.13895,2.01839 -5.61756,3.93288 -1.04591,1.35418 -2.04983,3.18536 -2.23103,4.06929 -0.64502,3.14663 -2.91526,3.14166 -5.54817,-0.0121 -1.32555,-1.5878 -1.45716,-2.15316 -1.59466,-6.85076 -0.16843,-5.75412 -0.69392,-6.68852 -3.76167,-6.68852 -2.02909,0 -5.28571,-1.42341 -5.28571,-2.31028 0,-0.34199 -0.81805,-1.06372 -1.81791,-1.60386 -1.10367,-0.59621 -1.76042,-1.33647 -1.6716,-1.88418 0.18871,-1.16351 4.31372,-3.52405 6.15828,-3.52405 0.9329,0 1.69994,-0.48019 2.22949,-1.39576 0.44402,-0.76765 1.25945,-1.52968 1.81206,-1.6934 0.5526,-0.16369 1.00469,-0.68334 1.00469,-1.15479 0,-1.97598 -1.47362,-2.37468 -8.92993,-2.41596 -7.92077,-0.0439 -9.12688,-0.43756 -10.93904,-3.57055 -0.82041,-1.41851 -0.80117,-1.53567 0.50718,-3.08269 1.7613,-2.08254 1.71681,-2.59967 -0.18293,-2.127 -1.53689,0.38238 -1.54301,0.37343 -1.54301,-2.24989 0,-3.36895 -0.78195,-3.91681 -1.76936,-1.23972 -0.69277,1.87831 -0.88318,2.02499 -1.85979,1.4329 -1.21341,-0.73568 -1.1467,-0.7707 -1.97694,1.03708 -0.48059,1.04631 -1.0426,1.31094 -2.78408,1.31094 -2.95137,0 -4.30879,1.23867 -5.98629,5.46257 -1.41694,3.56793 -5.42053,8.52098 -6.88756,8.52098 -0.39249,0 -1.32348,0.54343 -2.06882,1.2076 -1.46348,1.30403 -1.71756,3.0805 -0.7756,5.42247 0.82391,2.04845 0.17995,4.21026 -1.61121,5.40885 -1.27494,0.85314 -1.54007,1.40668 -1.54007,3.21504 0,1.56339 -0.28284,2.35595 -0.99488,2.78762 -1.51939,0.92115 -4.64479,0.75156 -4.99115,-0.27081 -0.63109,-1.86314 -1.21464,-0.7296 -1.21464,2.35952 0,1.83858 -0.35875,4.01942 -0.83163,5.05532 -0.62127,1.36097 -0.74759,2.63225 -0.49927,5.02548 0.21972,2.11823 0.0484,4.64971 -0.50584,7.47161 -0.83699,4.26165 -0.84074,4.26792 -2.55759,4.26792 -2.3162,0 -3.32069,1.70952 -3.32069,5.65137 0,2.71052 -0.16217,3.17537 -1.41443,4.05503 -2.36526,1.66141 -4.24326,3.85459 -4.24326,4.95537 0,0.57358 0.6365,1.48939 1.41443,2.03516 2.06202,1.44663 2.70025,2.52727 2.70025,4.57206 0,1.27277 0.47572,2.33273 1.5844,3.53019 0.8714,0.9412 2.29784,2.95458 3.16991,4.47414 1.63594,2.85061 3.38036,4.52024 4.72276,4.52024 1.12419,0 2.86696,2.34323 2.86696,3.85479 0,1.7767 -2.40174,3.8695 -3.80973,3.31971 -1.79101,-0.69935 -4.38167,-0.2494 -5.90374,1.02538 -0.79114,0.66262 -2.45352,1.46312 -3.6942,1.7789 -1.24063,0.31577 -3.25419,1.32339 -4.47466,2.23916 -1.81539,1.36217 -3.0107,1.73967 -6.572,2.07575 -5.14627,0.48563 -6.03839,0.006 -5.79989,-3.13235 0.18577,-2.44254 -0.47602,-2.82888 -2.65715,-1.5512 -1.48279,0.86863 -1.83253,0.8663 -4.5353,-0.0302 -5.0895,-1.68817 -15.56397,-0.89778 -17.74105,1.33869 -0.62255,0.63954 -2.02045,1.3159 -3.10652,1.50299 -3.27666,0.56454 -3.68484,1.36534 -1.88169,3.69173 0.84797,1.09408 1.54182,2.37994 1.54182,2.85736 0,1.09311 -2.06582,2.00535 -4.53392,2.00215 -2.52718,-0.006 -6.95585,-2.56999 -7.31897,-4.24192 -0.44228,-2.0364 -2.25665,-1.69661 -2.44067,0.45716 -0.0822,0.96136 -0.39352,2.45253 -0.69193,3.31363 -0.94808,2.73587 1.0912,7.66979 4.79471,11.60056 3.57037,3.78938 3.69633,4.98838 0.49485,4.71082 -2.83074,-0.24539 -2.86273,1.0786 -0.0765,3.16738 2.8955,2.17066 2.69378,4.40639 -0.28195,3.12473 -1.62283,-0.69893 -3.31839,-0.2553 -3.31839,0.86828 0,0.42853 1.21512,1.56003 2.70026,2.51446 1.48514,0.95451 3.74178,2.7655 5.01476,4.02454 2.22141,2.19704 8.46291,5.99811 9.86854,6.00999 1.42496,0.0121 6.07582,2.88614 6.07582,3.75471 0,1.24402 -1.69272,1.13517 -4.11467,-0.26453 -1.109,-0.64091 -2.37272,-1.16529 -2.80837,-1.16529 -0.87698,0 -1.09409,2.05028 -0.27763,2.62191 0.28288,0.19804 0.51433,1.26231 0.51433,2.36497 0,2.87105 -1.63374,2.72005 -3.47664,-0.32134 -1.11997,-1.84826 -1.97392,-2.51831 -4.1567,-3.26136 -2.14179,-0.72907 -2.97276,-1.36817 -3.77059,-2.90008 -0.76584,-1.47031 -1.49841,-2.06245 -2.91051,-2.35255 -1.03787,-0.21318 -2.7931,-0.90386 -3.90035,-1.53487 -1.48107,-0.8439 -2.50085,-1.03997 -3.85752,-0.74159 -3.52853,0.77609 -11.62404,1.28928 -12.77384,0.80982 -0.69132,-0.28823 -1.15726,-0.96918 -1.15726,-1.6912 0,-0.66474 -0.33807,-1.94923 -0.75124,-2.85437 -0.59308,-1.2992 -0.62954,-2.01102 -0.17301,-3.38101 0.75771,-2.27412 0.24436,-3.6551 -1.35872,-3.6551 -0.82299,0 -1.68358,-0.60829 -2.38837,-1.68816 -0.63185,-0.9682 -1.78668,-1.84339 -2.70766,-2.05203 -0.88321,-0.20015 -2.53525,-1.38589 -3.67116,-2.63502 -1.13597,-1.24914 -2.644,-2.35775 -3.35119,-2.4635 -1.17593,-0.17589 -1.2921,-0.45446 -1.35933,-3.25822 -0.0817,-3.40433 -0.93738,-5.27308 -3.32548,-7.26152 -2.49859,-2.08047 -4.05888,-6.13803 -4.05888,-10.55524 0,-2.05335 0.34718,-4.84805 0.77151,-6.21045 0.42432,-1.36241 0.7715,-3.56018 0.7715,-4.88394 0,-1.32377 0.22379,-3.29073 0.49726,-4.37102 0.698,-2.75692 -0.0568,-4.05237 -2.63284,-4.51901 -1.674,-0.30323 -2.31357,-0.78515 -3.1349,-2.36214 -0.60574,-1.16296 -2.02041,-2.54862 -3.42548,-3.35518 -1.31649,-0.75573 -2.70905,-2.04171 -3.09459,-2.85778 -0.38555,-0.81604 -1.3847,-1.75372 -2.22033,-2.08372 -0.83565,-0.33 -2.31492,-1.39132 -3.28732,-2.35847 -1.33855,-1.33136 -2.26929,-1.75847 -3.83194,-1.75847 -1.57133,0 -2.36511,-0.36803 -3.32527,-1.54171 -0.69373,-0.84794 -1.2613,-1.7338 -1.2613,-1.96858 0,-0.23479 -0.69729,-0.75408 -1.54954,-1.15397 -1.00306,-0.47065 -1.64875,-1.26619 -1.83083,-2.25562 -0.58525,-3.18065 -1.23357,-3.70913 -5.44674,-4.43996 -1.50814,-0.26162 -1.98981,-0.67182 -2.41635,-2.05787 -0.36019,-1.17039 -0.87874,-1.73113 -1.60101,-1.73113 -3.73078,0 -10.8674,-4.73483 -12.28799,-8.15255 -0.53916,-1.29711 -1.54685,-2.41089 -2.77293,-3.06488 -1.6749,-0.89345 -1.92591,-1.28803 -1.92591,-3.02764 0,-1.10017 -0.20412,-2.1432 -0.45362,-2.31788 -0.2495,-0.17469 -1.20774,-2.43683 -2.12941,-5.02697 -1.84953,-5.19763 -3.09504,-6.55884 -5.7385,-6.27149 -1.61941,0.17602 -1.70064,0.29463 -1.56635,2.28696 0.19618,2.91058 -0.74826,3.64194 -4.27519,3.31063 -1.56539,-0.14701 -3.08598,-0.53907 -3.3791,-0.87113 -1.0532,-1.19307 -0.78665,-5.63384 0.44458,-7.40699 1.27348,-1.83401 1.4717,-4.15292 0.55073,-6.44273 -0.948,-2.35698 -2.68038,-2.48918 -4.8137,-0.36731 -1.00115,0.99576 -2.24371,1.81049 -2.76126,1.81049 -1.10117,0 -10.13587,4.98353 -10.60991,5.85243 -0.1775,0.32534 0.28712,1.77036 1.03249,3.21115 1.11929,2.16362 1.29782,3.05309 1.02558,5.10967 -0.20327,1.53561 -0.0316,3.7831 0.44801,5.86346 0.67646,2.9345 1.19602,3.80253 3.99333,6.67151 1.76862,1.81396 4.04183,4.03373 5.05157,4.9328 1.00974,0.89908 2.53023,2.63904 3.37889,3.86657 0.84865,1.22753 3.00608,4.24864 4.79429,6.71356 1.94689,2.68367 3.5308,5.53383 3.94802,7.10427 1.14451,4.30802 3.72649,8.53928 6.53617,10.71123 1.41803,1.09621 2.96245,2.54637 3.43202,3.22261 1.72725,2.48752 2.88402,2.75304 10.10527,2.31952 5.96932,-0.35836 6.88556,-0.28993 7.64553,0.57099 1.13386,1.28447 0.23743,2.60262 -1.76998,2.60262 -1.24391,0 -3.05977,1.25208 -3.05977,2.10982 0,0.15325 0.34957,1.04441 0.77685,1.98037 0.91614,2.00695 2.20918,2.90035 4.20412,2.90482 2.71579,0.006 5.11769,1.10509 5.72717,2.62047 0.39536,0.98296 0.99956,1.45481 1.86275,1.45481 2.33916,0 6.7471,2.30059 9.49036,4.9532 1.76468,1.70636 3.1973,2.62123 4.10475,2.62123 2.08036,0 5.57826,4.26451 6.00669,7.32318 0.45107,3.22063 -0.80894,7.46679 -2.29135,7.7213 -0.89732,0.15406 -1.35065,-0.47388 -2.57631,-3.56849 -1.64983,-4.16552 -3.08506,-5.64952 -5.46401,-5.64952 -1.08885,0 -2.04753,-0.54157 -3.04368,-1.71939 -1.57428,-1.86144 -3.91816,-3.05376 -4.79561,-2.43943 -0.30109,0.21079 -0.70454,1.09229 -0.89654,1.95886 -0.192,0.86658 -0.78441,1.7321 -1.31648,1.92339 -0.53203,0.19128 -1.3972,1.44606 -1.9226,2.78843 -0.52538,1.34235 -1.34003,2.80049 -1.81034,3.24027 -1.45172,1.35763 -0.98382,2.46342 2.74176,6.47974 2.90202,3.12841 3.80582,4.54442 4.67839,7.33006 0.59477,1.89896 1.11713,4.10814 1.1607,4.90927 0.077,1.41548 -0.005,1.45213 -2.95141,1.29831 -4.17115,-0.21784 -5.45585,0.77486 -5.45585,4.21586 0,1.41577 -0.23145,2.73617 -0.51434,2.93422 -0.28288,0.19805 -0.51434,1.07876 -0.51434,1.95711 0,1.84029 -0.83146,2.99538 -2.15614,2.99538 -0.56119,0 -1.27627,0.85475 -1.82789,2.18495 -1.13622,2.7397 -2.78686,3.17827 -4.00905,1.06524 -0.74905,-1.29504 -0.77636,-1.86505 -0.21612,-4.51056 0.3527,-1.66551 1.15278,-3.57086 1.77791,-4.23416 0.62518,-0.66323 1.29099,-2.15312 1.47954,-3.31083 0.18856,-1.15772 0.80124,-2.57485 1.3615,-3.14922 1.36359,-1.39793 1.29185,-1.9454 -0.53466,-4.08022 -1.25348,-1.46495 -1.68861,-2.69707 -2.25443,-6.38302 -0.54392,-3.54325 -0.9704,-4.79765 -1.90177,-5.59346 -0.66031,-0.56424 -1.45902,-1.89943 -1.77488,-2.96709 -0.52862,-1.78686 -0.76526,-1.9553 -2.97555,-2.11885 -2.11424,-0.15645 -2.50131,-0.40016 -3.23822,-2.03927 -0.46033,-1.02389 -1.16051,-2.25491 -1.55598,-2.73559 -0.39546,-0.48069 -1.23911,-1.78588 -1.87477,-2.90042 -0.78671,-1.37935 -1.92846,-2.35145 -3.57583,-3.04434 -3.51371,-1.47787 -6.55504,-3.80839 -6.55504,-5.02299 0,-1.34746 -1.84492,-3.59843 -2.94933,-3.59843 -0.46854,0 -1.47604,-0.67738 -2.23886,-1.5053 -1.01836,-1.10524 -2.25606,-1.64656 -4.65716,-2.03686 -5.13938,-0.83538 -7.8876,-1.44476 -8.52339,-1.88987 -0.32262,-0.22588 -0.85464,-1.33076 -1.18227,-2.4553 -0.41537,-1.42577 -1.1662,-2.37451 -2.4806,-3.13447 -1.03671,-0.59938 -2.33345,-1.6516 -2.88163,-2.33824 -0.54818,-0.68664 -2.00257,-1.75249 -3.23197,-2.36852 -1.60763,-0.8056 -2.44021,-1.67575 -2.96514,-3.09894 -0.69756,-1.89126 -3.92715,-5.64369 -4.85733,-5.64369 -0.24355,0 -1.15317,-1.24542 -2.02138,-2.76759 -0.86822,-1.52216 -2.22467,-3.45053 -3.01435,-4.28529 -0.89029,-0.94109 -1.8786,-3.07522 -2.6013,-5.61719 -0.64104,-2.25471 -1.85467,-5.08182 -2.69696,-6.28247 -1.07713,-1.53542 -1.53142,-2.82383 -1.53142,-4.34319 0,-2.91697 -1.23236,-4.08871 -4.30028,-4.08871 -3.1812,0 -5.28311,-1.08603 -7.76237,-4.01072 -2.99146,-3.52886 -3.85434,-3.30109 -8.57185,2.26279 l -3.95213,4.66117 -2.80882,0 c -2.35467,0 -3.12692,0.28635 -4.77598,1.77092 -1.08193,0.97401 -3.02323,2.42262 -4.31398,3.21915 -1.29077,0.79654 -2.74341,2.2328 -3.22812,3.19169 -0.48471,0.95892 -1.29478,1.90752 -1.80018,2.10805 -0.50537,0.20051 -1.78253,1.2932 -2.83811,2.42818 -1.65518,1.77972 -2.33465,2.09764 -4.93909,2.31105 -2.95567,0.2422 -3.06335,0.19771 -5.06442,-2.0919 -1.14498,-1.31009 -2.90229,-2.60767 -3.99401,-2.94914 -1.07221,-0.33538 -2.38649,-1.05782 -2.92065,-1.60543 -0.88138,-0.90358 -1.45849,-0.93069 -6.23976,-0.29317 -7.93092,1.05746 -13.17799,2.21766 -14.51391,3.20924 -1.15441,0.85686 -4.52692,8.08639 -5.20957,11.16757 -0.25005,1.12862 0.063,2.11807 1.2755,4.03058 0.88379,1.3941 1.60689,3.10785 1.60689,3.8083 0,1.69826 -3.36005,7.78991 -5.43528,9.85401 -2.02254,2.0117 -7.238,4.86008 -11.33369,6.18984 -7.8424,2.54621 -15.11976,8.21224 -15.11976,11.772 0,1.52929 -0.87195,2.80335 -5.55482,8.11635 -5.59748,6.35074 -7.81786,10.10677 -7.81786,13.22504 0,2.03852 0.42703,2.9157 4.14933,8.52285 1.67824,2.52806 3.05135,5.10854 3.05135,5.73442 0,1.26719 -2.2467,2.41723 -4.72227,2.41723 -2.75694,0 -4.88254,1.44672 -5.5644,3.78716 -0.34482,1.1836 -0.92979,2.8132 -1.29992,3.62137 -0.37012,0.80819 -0.5569,2.29046 -0.41506,3.29396 0.20888,1.47771 -0.0807,2.26677 -1.5238,4.15157 -1.76247,2.3021 -1.80169,2.319 -3.63492,1.568 -2.28578,-0.9363 -2.28091,-0.9394 -8.33311,5.1702 -3.77036,3.806 -4.92167,5.3275 -5.17113,6.8339 -0.4366,2.6364 -1.71707,3.3744 -7.17379,4.1348 -6.48978,0.9044 -12.12623,0.8111 -15.77943,-0.2613 -4.70817,-1.382 -11.07205,0.3422 -13.9879,3.7899 -1.30772,1.5463 -1.67789,1.6789 -3.86532,1.3855 -2.34872,-0.3151 -2.45105,-0.2632 -3.51742,1.7841 -1.27441,2.4469 -2.3077,2.6038 -5.65983,0.8593 z M 180.9659,371.37565 c 0,-1.27276 -1.55624,-4.8949 -2.10308,-4.8949 -0.49607,0 -0.0581,3.23592 0.65062,4.80686 0.57534,1.27534 1.45246,1.32851 1.45246,0.088 z m 86.66533,-236.78857 c -0.17482,-0.32045 -0.41994,-0.58266 -0.54468,-0.58266 -0.12471,0 -0.22682,0.26221 -0.22682,0.58266 0,0.32044 0.24511,0.58263 0.54469,0.58263 0.29959,0 0.40165,-0.26219 0.22681,-0.58263 z m 203.4654,390.22812 c -1.57853,-4.3127 -3.46758,-7.2034 -5.25562,-8.0424 -2.1714,-1.0189 -2.73471,-0.1835 -1.98969,2.9508 0.49766,2.0937 0.46362,2.6294 -0.21603,3.3994 -1.18034,1.3371 -1.78814,0.3108 -2.38903,-4.0339 -0.53167,-3.8445 -1.84501,-6.6551 -3.10966,-6.6551 -0.53203,0 -0.75483,1.0852 -0.86712,4.2242 -0.10991,3.072 -0.34038,4.2241 -0.84504,4.2241 -0.79188,0 -1.31835,-1.2506 -1.31835,-3.1317 0,-0.7912 -0.99262,-2.3498 -2.57167,-4.0381 -2.77241,-2.9642 -2.92039,-3.4285 -1.80017,-5.6484 0.40426,-0.8011 0.74327,-1.6867 0.75329,-1.9679 0.009,-0.2813 -1.37307,-2.0204 -3.07351,-3.8647 -2.70097,-2.9296 -3.03488,-3.52728 -2.64239,-4.72923 0.32804,-1.00467 1.31299,-1.7127 3.65131,-2.62482 1.76113,-0.68701 3.45941,-1.54065 3.77393,-1.897 1.56636,-1.77433 8.45046,0.16246 10.1419,2.85341 0.5685,0.90438 3.11924,3.1351 5.66832,4.95714 2.5491,1.822 4.87245,3.816 5.16299,4.431 1.24495,2.6353 -1.3314,3.0104 -5.24523,0.7637 -1.43314,-0.8227 -2.7272,-1.3582 -2.87574,-1.19 -0.14849,0.1683 0.3375,1.1238 1.07999,2.1234 1.34664,1.8129 1.51956,2.3499 2.12544,6.5985 0.17641,1.237 1.11553,3.9462 2.08696,6.0206 1.68223,3.5921 2.43374,8.3359 1.32051,8.3359 -0.24513,0 -0.94957,-1.3765 -1.56539,-3.0589 z m 28.18728,-0.3702 c -1.02666,-0.9417 -1.09919,-1.2328 -0.50831,-2.0393 1.52571,-2.0825 3.72968,-0.3751 2.60063,2.0147 -0.64945,1.3748 -0.62081,1.3744 -2.09232,0.024 z m -132.20592,-7.6545 c -2.20208,-1.8756 -3.03746,-2.273 -4.18112,-1.9893 -1.06124,0.2634 -2.05446,-0.091 -3.85751,-1.3763 -1.33556,-0.952 -3.35408,-1.9061 -4.48563,-2.1203 -3.36025,-0.636 -3.75568,-0.8771 -4.91028,-2.9934 -1.39362,-2.5544 -3.03169,-3.5125 -6.91993,-4.0473 -1.69701,-0.2334 -3.44704,-0.6366 -3.88896,-0.8959 -0.92061,-0.5403 -2.18775,-4.67585 -1.62692,-5.30977 0.62257,-0.70373 6.37851,-2.22973 8.4104,-2.22973 1.44648,0 2.1349,-0.35536 2.8536,-1.47304 l 0.94724,-1.47305 3.20012,1.47305 c 3.73477,1.71914 4.76787,1.80177 6.90149,0.55188 0.91619,-0.53674 2.46184,-0.84426 3.70337,-0.73682 1.35743,0.11742 2.59762,-0.16531 3.41673,-0.77889 1.01249,-0.75849 1.94056,-0.88055 4.36564,-0.57413 3.71334,0.46914 4.0502,1.28334 2.1776,5.26362 -0.84079,1.7871 -1.37876,4.10918 -1.59125,6.86858 -0.27973,3.6321 -0.16293,4.5553 0.90753,7.1727 1.35132,3.304 1.2553,4.858 -0.38039,6.1559 -1.56008,1.2378 -1.99094,1.1107 -5.04173,-1.4878 z m 119.94974,0.9322 c -0.7984,-1.0898 -0.29179,-2.0842 1.0619,-2.0842 0.76887,0 0.99194,0.3245 0.86973,1.2654 -0.20542,1.5811 -1.09645,1.9588 -1.93163,0.8188 z m 11.06199,-3.5824 c -0.44454,-0.5036 -0.80822,-1.1066 -0.80822,-1.3401 0,-0.9837 1.34957,-1.8229 2.9317,-1.8229 1.30688,0 1.69731,0.2473 1.69731,1.075 0,1.1489 -1.51091,3.0036 -2.44684,3.0036 -0.31112,0 -0.9294,-0.412 -1.37395,-0.9156 z m -13.32366,-8.2126 c -0.63583,-0.7202 -0.34914,-2.3974 0.47067,-2.7538 2.4151,-1.0498 3.95614,0.1913 2.50027,2.0137 -0.89835,1.1244 -2.31922,1.4784 -2.97094,0.7401 z m 21.77346,-1.6178 c 0,-0.9297 1.91261,-2.6549 2.94328,-2.6549 1.05711,0 0.75612,1.6033 -0.48604,2.5889 -1.43094,1.1354 -2.45724,1.1629 -2.45724,0.066 z m -66.0328,-2.9257 c -1.01201,-1.74974 -1.05893,-2.64247 -0.13888,-2.64247 0.93084,0 2.39423,1.89767 2.39423,3.10477 0,1.4464 -1.30621,1.1786 -2.25535,-0.4623 z m 73.83684,0.1009 c -0.8073,-1.1018 -0.25367,-1.57808 1.83458,-1.57808 1.39087,0 1.71695,0.21028 1.58148,1.01968 -0.21371,1.2766 -2.60371,1.6673 -3.41606,0.5584 z m -22.7094,-3.60323 c -0.4057,-0.55375 -0.44475,-0.88808 -0.10365,-0.88808 0.62163,0 1.34633,1.1054 0.98963,1.50948 -0.1295,0.1467 -0.52812,-0.13296 -0.88594,-0.6214 z m -55.42987,-5.3525 c -1.12905,-0.5161 -0.71651,-2.5245 0.63845,-3.10807 1.34503,-0.57926 2.83332,-0.2415 2.83332,0.64307 0,0.65559 -1.92578,2.86657 -2.44309,2.80493 -0.21217,-0.0251 -0.67507,-0.17829 -1.02868,-0.33993 z m 67.69963,-2.16231 c -0.40534,-1.00775 -0.39481,-1.72466 0.0386,-2.64244 0.49051,-1.03832 0.8937,-1.196 2.29593,-0.89803 1.47876,0.31427 1.74266,0.18378 2.0203,-0.99911 0.30799,-1.31207 0.39384,-1.26873 2.4072,1.21551 2.87305,3.54524 2.01062,5.18812 -1.85058,3.52514 -1.08191,-0.46601 -1.58442,-0.40123 -2.25988,0.29132 -1.22387,1.25467 -2.00767,1.10913 -2.65181,-0.49239 z m -23.58094,-2.43285 c -0.98212,-0.78548 -1.99557,-1.42808 -2.25217,-1.42808 -0.25655,0 -1.34231,-0.85212 -2.41274,-1.8936 -1.07049,-1.04147 -2.46849,-2.30571 -3.10679,-2.80941 -1.38798,-1.09525 -0.94205,-2.28874 0.85508,-2.28874 0.85252,0 1.4584,0.47712 1.85362,1.4597 0.39768,0.98875 1.26443,1.66636 2.68631,2.1001 3.02917,0.924 5.84263,2.67218 6.48344,4.02854 1.23214,2.60798 -1.25554,3.11168 -4.10675,0.83149 z m 6.06291,-7.54831 c -0.32275,-0.80255 -0.41356,-1.65467 -0.20187,-1.8936 0.48969,-0.55265 2.44555,2.13044 2.0635,2.83074 -0.50888,0.93274 -1.26202,0.55363 -1.86163,-0.93714 z m -196.20821,-2.03129 c -3.90805,-2.83592 -4.01142,-3.25303 -3.52694,-14.2317 0.3339,-7.56637 0.27403,-8.4982 -0.75216,-11.70905 -1.62903,-5.09707 -1.76792,-6.34688 -0.80586,-7.25136 0.69196,-0.65055 1.30563,-0.65498 3.61975,-0.0261 l 2.78654,0.75726 3.27484,-2.41702 c 1.80115,-1.32935 3.66372,-2.417 4.13905,-2.417 1.48256,0 2.92155,2.16378 2.92155,4.39307 0,1.13435 0.48327,3.13555 1.07393,4.44713 0.93897,2.08497 0.99979,2.68608 0.48397,4.78361 -0.32447,1.31946 -0.88725,5.59429 -1.25065,9.49966 -0.43964,4.72473 -0.96103,7.61986 -1.55827,8.65243 -0.82408,1.42475 -1.08861,1.51937 -3.23103,1.1554 l -2.33343,-0.39638 0.34436,2.60134 c 0.26466,1.99937 0.15207,2.81914 -0.48649,3.54256 -0.45697,0.51768 -0.98791,0.93573 -1.17987,0.92897 -0.19196,-0.006 -1.77564,-1.04749 -3.51929,-2.31281 z m -90.68431,1.01409 c 0.005,-0.40056 0.45669,-1.38379 1.0009,-2.18492 0.78641,-1.15773 1.12042,-1.30874 1.62762,-0.73601 0.50773,0.57334 0.38998,1.01987 -0.57622,2.18493 -1.32827,1.60164 -2.07007,1.86768 -2.0523,0.736 z m 308.24862,0.15295 c -0.6116,-0.28292 -1.2593,-1.04015 -1.43931,-1.68269 -0.22066,-0.7875 -0.86394,-1.22706 -1.97397,-1.34871 -1.36844,-0.15002 -1.6467,-0.42522 -1.6467,-1.62907 0,-0.98962 0.32599,-1.51577 1.02867,-1.66043 0.56578,-0.11652 1.50283,-0.70617 2.08239,-1.31032 1.63512,-1.70465 3.1183,-0.21855 3.58039,3.58736 0.33297,2.74265 0.45091,2.94108 1.56043,2.62563 1.14404,-0.32528 2.22887,0.45785 1.40029,1.01084 -0.96624,0.64489 -3.57803,0.87661 -4.59219,0.40739 z m -32.21996,-3.87577 c -0.18094,-0.20491 -0.21207,-0.58673 -0.0693,-0.84851 0.32069,-0.58783 1.76972,-0.0136 1.76972,0.70081 0,0.59785 -1.21028,0.70296 -1.70044,0.14776 z M 214.9493,469.23944 c -1.68723,-2.42982 -1.40121,-3.50422 1.03126,-3.87386 1.15349,-0.17526 2.50256,-0.73412 2.99793,-1.24202 2.24216,-2.29859 7.24882,0.54705 7.24882,4.12001 0,1.92333 -1.46494,2.53109 -6.10086,2.53109 -3.82873,0 -4.18438,-0.1055 -5.17715,-1.53522 z m 16.59971,-6.28648 c -2.30136,-2.37982 -2.42918,-2.65176 -1.66398,-3.54005 1.96195,-2.27758 8.41984,2.25059 7.12337,4.99486 -0.87003,1.84158 -2.75828,1.33841 -5.45939,-1.45481 z m 260.93206,1.02412 c -0.72543,-0.82176 -0.28937,-1.99405 0.93844,-2.52287 1.49698,-0.64476 2.83333,-0.21371 2.83333,0.91389 0,1.36485 -2.89653,2.60047 -3.77177,1.60898 z m -19.31028,-2.58341 c -0.63782,-0.67313 -1.06971,-1.32576 -0.95974,-1.45033 0.33009,-0.37394 4.49708,1.64599 4.49708,2.17998 0,0.96818 -2.39716,0.47376 -3.53734,-0.72965 z m 26.68238,-3.13481 c 0,-1.12172 2.45837,-1.82917 3.24798,-0.93468 0.45837,0.51925 0.41893,0.8111 -0.16629,1.2302 -1.19887,0.85865 -3.08169,0.67808 -3.08169,-0.29552 z m -18.44495,-1.24384 c -1.76067,-1.39701 -0.61138,-2.3183 1.41283,-1.13248 0.88115,0.51616 1.6021,1.19395 1.6021,1.5062 0,0.88061 -1.69952,0.66998 -3.01493,-0.37372 z m 3.77101,-6.66135 c -0.50503,-0.92565 2.15515,-3.89857 2.81731,-3.14851 0.66858,0.75739 -0.49907,3.39864 -1.60962,3.64091 -0.46156,0.10067 -1.00505,-0.12089 -1.20769,-0.4924 z M 291.23139,433.08003 c -1.88526,-2.33161 -2.11249,-3.73882 -0.96944,-6.00395 0.40427,-0.80112 0.74325,-2.77477 0.75327,-4.38587 0.0107,-1.61109 0.33256,-3.44642 0.71675,-4.07852 0.38419,-0.63209 0.85004,-2.08694 1.03522,-3.23299 0.46488,-2.87707 1.35734,-4.06116 3.43472,-4.55702 1.6653,-0.39749 1.76604,-0.55367 1.62931,-2.5259 -0.2758,-3.97835 2.31896,-3.30473 3.76235,0.97676 0.8236,2.44298 0.82458,2.86282 0.0161,6.85277 -0.88227,4.35387 -1.96821,10.03076 -2.70405,14.13576 -0.30429,1.69748 -0.87819,2.66422 -2.16189,3.64154 -2.4128,1.83694 -3.49206,1.67589 -5.51225,-0.82258 z M 129.38424,284.26835 c -0.50585,-0.33349 -1.63266,-0.42896 -2.50404,-0.21214 -1.20718,0.30034 -1.53161,0.20618 -1.36295,-0.3956 0.18905,-0.67459 2.04303,-1.94185 8.5071,-5.81487 0.68701,-0.41162 1.27713,-1.46373 1.46822,-2.61765 0.36961,-2.2319 0.83087,-2.74111 3.29791,-3.64094 0.9901,-0.36112 2.46561,-1.60222 3.2789,-2.758 2.42205,-3.44201 6.58153,-4.64921 10.57936,-3.07046 2.42928,0.95934 5.30152,-0.16464 7.04757,-2.75786 0.76349,-1.13393 2.40239,-2.8522 3.64202,-3.81836 1.23964,-0.96617 2.16416,-2.06193 2.05451,-2.43504 -0.4001,-1.36133 -2.05963,-1.0324 -4.08256,0.80918 -1.38809,1.26367 -3.11077,2.12875 -5.22338,2.62305 -1.73372,0.40566 -3.63496,0.91144 -4.22497,1.12398 -0.75101,0.27052 -1.55437,-0.0726 -2.67848,-1.14415 -1.31611,-1.25453 -1.92638,-1.46242 -3.3837,-1.15271 -1.53481,0.32616 -1.89763,0.17103 -2.65261,-1.13426 -0.98216,-1.69805 -2.61193,-1.95721 -4.12976,-0.65669 -1.26077,1.08026 -2.62622,1.12503 -3.15875,0.10354 -0.22623,-0.4339 -0.93208,-1.0986 -1.56858,-1.47712 -2.71447,-1.61427 -0.31868,-4.07555 4.44324,-4.5647 3.01886,-0.31011 3.10927,-0.37217 5.93322,-4.07331 2.71948,-3.56419 2.86766,-3.92151 2.86766,-6.91482 0,-3.46915 -0.57318,-3.89749 -3.31897,-2.48026 -0.98384,0.50779 -1.6302,0.51092 -2.59587,0.0121 -1.76256,-0.90973 -1.61631,-1.83103 0.62977,-3.96723 1.65999,-1.5788 1.82392,-1.94719 1.22832,-2.76017 -1.78075,-2.43064 1.48399,-3.70315 3.92358,-1.52928 l 1.31491,1.17169 1.76727,-1.18121 c 1.53182,-1.02383 2.29999,-1.13087 5.76598,-0.80343 4.3355,0.4096 5.43883,-0.16318 3.93658,-2.04361 -1.07753,-1.34882 -1.03679,-1.99274 0.20679,-3.26764 0.56577,-0.58002 1.02867,-1.74808 1.02867,-2.59568 0,-0.84761 0.26218,-1.83812 0.58263,-2.20113 1.22838,-1.39152 0.0674,-2.48628 -2.63655,-2.48628 -2.3699,0 -2.64599,-0.14217 -3.11277,-1.60228 -0.28172,-0.88125 -0.76251,-2.15945 -1.06844,-2.8404 -0.67007,-1.49155 -0.18117,-2.70061 2.0762,-5.13434 1.68566,-1.81739 2.08826,-4.06405 0.82652,-4.61254 -0.4184,-0.18188 -2.49707,0.37675 -4.61927,1.24141 -3.84449,1.56634 -3.86504,1.56812 -5.6403,0.48509 -2.02153,-1.23327 -3.38105,-0.93161 -3.38105,0.75021 0,0.62808 -0.3867,1.58002 -0.85934,2.11542 -0.80289,0.90953 -0.91908,0.88374 -1.7691,-0.39283 -0.67632,-1.01569 -1.31369,-1.3183 -2.48384,-1.17925 -1.17432,0.1396 -1.57407,-0.0519 -1.57407,-0.75406 0,-1.45551 1.77375,-4.97515 4.0798,-8.09553 2.32114,-3.1408 2.60835,-4.90764 1.05641,-6.49868 -0.79349,-0.81347 -0.96317,-1.50053 -0.72531,-2.93682 0.38665,-2.33479 -0.10446,-2.70555 -2.23797,-1.68934 -2.13199,1.01549 -2.55367,2.28941 -1.45513,4.39606 0.67209,1.2889 0.74452,1.94144 0.31609,2.84829 -0.76825,1.62614 -1.38595,1.47393 -2.31973,-0.57161 -1.03714,-2.272 -1.61764,-2.20537 -2.53852,0.29134 -0.42582,1.15448 -1.11789,2.03926 -1.59511,2.03926 -0.70457,0 -0.78463,-0.40654 -0.4876,-2.47626 0.19545,-1.36195 0.86947,-3.13173 1.49784,-3.93286 0.62837,-0.80115 1.56315,-2.91384 2.07727,-4.69486 0.69665,-2.41334 1.37479,-3.565 2.66204,-4.52088 1.32272,-0.98223 1.72726,-1.69076 1.72726,-3.02522 0,-2.2669 -1.10219,-2.2841 -4.19057,-0.0653 -1.28404,0.92246 -3.18324,2.02483 -4.22043,2.4497 -1.64852,0.6753 -1.99113,0.6532 -2.72278,-0.17564 -0.77306,-0.87574 -0.76152,-1.09614 0.15114,-2.88669 0.54346,-1.06622 1.76407,-2.38186 2.71246,-2.92368 4.22638,-2.41445 7.43457,-8.62855 4.45473,-8.62855 -1.99395,0 -2.8709,-0.61438 -2.8709,-2.0113 0,-1.45449 1.2129,-2.89206 2.94406,-3.48939 0.62913,-0.21708 1.62857,-1.16578 2.22094,-2.10819 0.83696,-1.33151 1.47415,-1.71349 2.85835,-1.71349 2.15579,0 2.78612,-1.29311 1.44725,-2.96903 -1.3061,-1.63493 -0.41032,-3.06727 2.15142,-3.44009 1.7434,-0.25372 2.03593,-0.51632 2.26629,-2.03439 0.30175,-1.98856 1.40908,-2.44285 6.23464,-2.55786 1.59102,-0.0379 3.87676,-0.46221 5.07943,-0.9429 6.22291,-2.48718 11.13039,0.69929 6.26936,4.07074 -0.93028,0.6452 -3.01077,2.13302 -4.6233,3.30625 -1.61254,1.17322 -3.80239,2.31726 -4.86632,2.54228 -2.28023,0.4823 -2.92704,1.34373 -1.74449,2.32329 1.33595,1.10661 1.00396,1.94681 -0.93177,2.35817 -2.07094,0.44012 -3.09856,1.58748 -2.6384,2.94588 0.50207,1.48215 4.48652,0.74959 6.80124,-1.25043 l 1.87321,-1.61854 1.76228,1.0751 c 1.53436,0.93606 2.05842,0.98536 4.05228,0.38126 1.25952,-0.38161 3.59932,-0.69383 5.19955,-0.69383 1.96122,0 3.20989,-0.3079 3.83099,-0.94465 1.11739,-1.14553 2.1607,-0.77099 3.28973,1.18097 1.32386,2.28884 0.57377,4.25959 -3.63154,9.54145 -2.11298,2.6539 -3.8418,5.21027 -3.8418,5.68081 0,1.49763 -1.97009,3.18566 -3.72892,3.19505 -2.117,0.0106 -3.19696,0.7741 -2.79134,1.97155 0.20577,0.60745 0.93884,0.93277 2.10192,0.93277 0.98229,0 1.93528,0.27368 2.11777,0.60816 0.6334,1.16101 -0.88684,2.30508 -3.06299,2.30508 -1.46183,0 -2.6865,0.44706 -3.82011,1.39448 -0.97943,0.81857 -2.08279,1.27177 -2.67161,1.09735 -0.59978,-0.17769 -1.00307,-0.005 -1.00307,0.43174 0,0.71971 2.77653,0.60443 9.16387,-0.38046 1.8167,-0.28012 2.43191,-0.11727 3.38404,0.89607 0.64003,0.68115 2.18444,1.57323 3.43202,1.98241 2.05605,0.67435 2.29744,0.94682 2.57934,2.91146 0.17106,1.1921 0.40489,2.24392 0.51963,2.33738 0.11471,0.0934 0.84511,0.62098 1.62305,1.17229 1.1467,0.81265 1.41442,1.42894 1.41442,3.25591 0,1.23944 0.45781,3.39647 1.01737,4.7934 0.55956,1.39694 1.02246,3.25558 1.02868,4.13033 0.009,1.27552 0.44411,1.84492 2.19721,2.87569 1.20225,0.70688 3.11172,1.43325 4.24325,1.61412 1.93235,0.30889 2.1902,0.5944 4.24394,4.69873 1.20261,2.40341 2.64918,5.08027 3.21459,5.94855 1.40864,2.16325 1.29278,2.79116 -0.51501,2.79116 -2.18285,0 -1.98317,1.46977 0.38576,2.8394 2.76472,1.59847 3.90167,3.19076 3.45515,4.83892 -0.52054,1.92144 -1.25317,2.80934 -2.31802,2.80934 -1.26742,0 -1.5184,1.15 -0.6676,3.05889 0.849,1.90488 1.60893,1.98531 4.26346,0.4512 2.10409,-1.21599 5.85231,-1.55008 9.69348,-0.86397 2.48235,0.44339 3.59412,1.85275 4.25112,5.38904 0.22085,1.18864 0.55815,2.73351 0.74958,3.43305 0.29875,1.09178 -0.0268,1.48702 -2.29875,2.79126 -2.80907,1.61253 -3.23667,2.27775 -3.31855,5.16273 -0.0474,1.67118 -0.22577,1.8459 -2.29222,2.24551 -2.6805,0.51838 -3.67406,1.34306 -3.67406,3.04961 0,1.54186 -0.91139,2.6671 -2.1602,2.6671 -0.50919,0 -0.92581,0.3814 -0.92581,0.84757 0,1.32712 3.03821,1.6693 5.61485,0.6324 4.22205,-1.69906 5.59648,0.46396 2.3479,3.69508 -1.76319,1.75372 -2.23317,1.96721 -5.83644,2.65125 -0.95217,0.18075 -2.50575,1.09902 -3.4524,2.04059 l -1.72119,1.71194 -8.63446,-0.17132 c -4.8342,-0.096 -9.26177,-0.45998 -10.05976,-0.82719 -1.26377,-0.58152 -1.55501,-0.48683 -2.57,0.83555 -0.98742,1.28648 -1.49824,1.46815 -3.71804,1.32234 -1.41535,-0.093 -3.07895,0.14927 -3.69692,0.53824 -0.77178,0.48582 -1.52522,0.53426 -2.40636,0.15476 -1.73171,-0.74584 -9.40927,-0.69484 -11.64293,0.0773 -2.46163,0.851 -3.43992,1.94555 -3.82678,4.28157 -0.61942,3.74031 -2.00192,4.27299 -4.9963,1.9251 -1.5358,-1.20423 -3.10691,-1.36249 -4.59134,-0.46255 -0.55152,0.33438 -1.78781,0.678 -2.7473,0.7636 -0.95949,0.0856 -2.56065,0.86078 -3.55811,1.72264 -1.9646,1.69748 -2.67311,1.85787 -4.08778,0.92524 z M 81.447616,261.03149 c -0.17185,-0.31502 -0.15275,-1.53716 0.0424,-2.7159 0.32259,-1.9479 0.26628,-2.10055 -0.61797,-1.67545 -3.451,1.65905 -5.61136,0.41947 -3.80436,-2.18288 1.30806,-1.88381 1.3089,-2.75805 0.002,-2.75805 -2.40356,0 -0.35102,-3.73805 2.60307,-4.74067 1.3417,-0.45538 2.27105,-1.21727 2.68598,-2.20201 0.57831,-1.37248 0.9718,-1.53147 4.44718,-1.79702 2.39741,-0.1832 3.89138,-0.56168 4.02462,-1.01964 0.15703,-0.53972 -0.79805,-0.72831 -3.68847,-0.72831 -5.76028,0 -5.34948,-1.42438 1.58667,-5.5015 4.19179,-2.46399 5.58778,-3.92016 5.11007,-5.33039 -0.33843,-0.99906 -0.45,-0.99707 -6.56968,0.11712 -1.59777,0.29091 -2.06587,0.11108 -3.05018,-1.17125 -0.63951,-0.83319 -1.58391,-1.5149 -2.09867,-1.5149 -1.73424,0 -1.15448,-2.65205 0.87652,-4.00953 2.45725,-1.64237 2.71087,-2.71093 1.05582,-4.44851 -1.12548,-1.1816 -1.27036,-1.63974 -0.82001,-2.59301 0.89779,-1.90035 2.44867,-2.5532 4.15889,-1.75072 0.81664,0.3832 2.24221,0.55192 3.16793,0.37498 8.39841,-1.60541 9.29003,-1.98725 11.430144,-4.89504 1.47944,-2.01015 1.37651,-3.07083 -0.29796,-3.07083 -0.77819,0 -0.99341,-0.3244 -0.86972,-1.31096 0.12164,-0.97052 0.56503,-1.36216 1.70736,-1.50817 2.06904,-0.26445 2.95517,-1.19252 2.61305,-2.73666 -0.48798,-2.20251 1.18453,-3.31036 4.29252,-2.84331 2.30932,0.34704 2.81015,0.23174 3.8637,-0.88947 1.57876,-1.68018 4.07509,-1.47495 4.30507,0.35393 0.249,1.98016 1.60168,2.13263 3.77611,0.4256 1.62456,-1.27536 2.35309,-1.49272 4.10885,-1.22595 2.40814,0.3659 2.96582,1.02148 2.61871,3.07843 -0.1988,1.17809 0.0376,1.53498 1.36351,2.05859 1.75864,0.69449 1.9135,1.13918 0.98388,2.82546 -0.53185,0.9647 -0.42199,1.30148 0.7715,2.36496 1.90857,1.7007 1.77468,3.26937 -0.40335,4.72511 -0.98724,0.65986 -2.08797,1.89223 -2.44607,2.73859 -0.46354,1.09561 -1.17376,1.63511 -2.46573,1.87299 -0.99806,0.18378 -2.11837,0.54678 -2.48955,0.80666 -0.68371,0.47868 -0.66657,0.73524 0.43114,6.4523 0.39843,2.07512 0.40185,3.75021 0.012,5.82246 -0.30112,1.60007 -0.39807,4.26382 -0.21546,5.91945 0.3209,2.90965 0.2637,3.09476 -1.71169,5.53918 -1.12404,1.3909 -2.20943,3.13387 -2.41198,3.87325 -0.41369,1.51017 -2.13632,2.44288 -4.51179,2.44288 -0.8761,0 -2.5461,0.63279 -3.71111,1.40622 -1.16502,0.77342 -3.03696,1.59533 -4.15987,1.82645 -1.12291,0.23115 -2.98495,1.03852 -4.13786,1.79416 -1.15293,0.75565 -3.344484,1.64208 -4.870124,1.96984 -1.52565,0.32776 -3.59583,1.24117 -4.6004,2.02981 -4.10027,3.21889 -11.18885,5.44839 -12.08725,3.80168 z m 59.573624,-44.61961 c -0.5089,-1.50229 0.71983,-3.69574 2.65631,-4.74183 1.66725,-0.90067 1.88835,-0.90497 2.64177,-0.0515 1.03079,1.16769 0.7321,1.70864 -2.16755,3.9255 -2.69756,2.06236 -2.72346,2.06953 -3.13053,0.86781 z m 176.26196,-5.18114 c -0.91154,-1.24423 -0.1987,-2.06479 1.79373,-2.06479 1.6864,0 3.26137,1.63252 2.4556,2.54531 -0.62081,0.70326 -3.6315,0.36281 -4.24933,-0.48052 z m 7.93105,-5.01913 c -0.21153,-0.38772 -1.12208,-0.47414 -2.40625,-0.22837 -2.63371,0.50407 -2.48463,-0.7145 0.26992,-2.20605 1.15957,-0.6279 2.00277,-1.56546 2.19723,-2.44314 0.40829,-1.84286 0.051,-2.43154 -1.71884,-2.83255 -1.00531,-0.22775 -1.92791,-1.18085 -3.03386,-3.13414 -3.02107,-5.33566 -2.85315,-7.17672 0.65459,-7.17672 2.42609,0 2.52501,-0.0972 1.75595,-1.72506 -0.3678,-0.77851 -0.29268,-1.26405 0.27868,-1.80121 0.6435,-0.60499 1.04826,-0.51253 2.28286,0.52147 1.71017,1.43232 3.08532,1.63478 3.08532,0.45423 0,-0.44145 0.35404,-1.13547 0.78673,-1.54228 1.18196,-1.11123 3.09443,0.1227 4.27554,2.7586 0.90661,2.0233 0.9225,2.32164 0.18989,3.56267 -0.72695,1.23139 -0.72149,1.50421 0.0601,3.00312 1.15045,2.20625 1.13087,2.27401 -0.94044,3.2544 -2.20399,1.04319 -2.2628,1.7008 -0.25716,2.87569 1.94324,1.13836 1.94324,1.77487 0,2.91323 -0.84866,0.49715 -1.54302,1.3691 -1.54302,1.9377 0,0.5686 -0.27773,1.34844 -0.61719,1.73299 -0.76555,0.86721 -4.85645,0.9252 -5.32008,0.0755 z m 33.98019,-5.41172 c -0.8504,-0.70491 -0.93295,-1.11467 -0.50397,-2.50191 0.67492,-2.18269 2.29154,-2.40048 4.16021,-0.56043 1.21492,1.19629 1.37544,1.63904 0.9092,2.50773 -0.72128,1.34386 -3.24362,1.65028 -4.56544,0.55461 z m -232.91943,-10.6671 c -1.22371,-1.38624 1.03955,-5.43804 3.03762,-5.43804 1.50417,0 1.65481,1.39873 0.37823,3.5119 -1.31805,2.18186 -2.56795,2.88664 -3.41585,1.92614 z m 250.42427,-9.64621 c -1.05205,-1.7015 -1.01502,-3.92749 0.095,-5.71285 1.21963,-1.96165 2.49048,-4.53136 3.44988,-6.97575 1.81173,-4.61623 2.64383,-6.114 3.49957,-6.29964 1.66299,-0.36078 1.55653,1.63716 -0.3373,6.3305 -1.03145,2.5561 -2.24069,6.2823 -2.6873,8.28043 -0.76171,3.40806 -1.88488,5.67225 -2.81375,5.67225 -0.22299,0 -0.76575,-0.58271 -1.20612,-1.29494 z m 19.89049,-10.7878 c -1.11519,-0.44035 -2.17513,-3.46866 -2.17513,-6.21452 0,-2.18424 0.22776,-2.79898 1.35986,-3.67049 0.74788,-0.57576 2.56966,-2.42332 4.04833,-4.10573 1.47866,-1.68239 2.92141,-3.0589 3.2062,-3.0589 1.10113,0 1.48756,1.59309 1.20004,4.94731 -0.26266,3.06435 -0.46944,3.58277 -1.69298,4.24473 -0.92971,0.50304 -1.84698,1.89821 -2.75525,4.191 -1.36544,3.4467 -1.97478,4.14686 -3.19107,3.6666 z m -281.45866,-2.22106 c 0,-0.17614 0.35911,-1.10692 0.798,-2.06839 0.4389,-0.96146 0.65311,-2.2653 0.47601,-2.8974 -0.17709,-0.63208 -0.16771,-1.94503 0.0209,-2.91762 0.28639,-1.47708 0.55951,-1.73886 1.65803,-1.5892 0.72335,0.0985 1.56999,0.65566 1.8814,1.23799 0.46312,0.86606 0.32535,1.29038 -0.75675,2.3306 -0.72763,0.69948 -1.60485,2.38609 -1.9494,3.74804 -0.36893,1.45834 -0.9351,2.47624 -1.37729,2.47624 -0.41298,0 -0.75087,-0.14414 -0.75087,-0.32026 z m 12.49816,-1.00468 c -0.22621,-0.40826 -1.0478,-1.20088 -1.82572,-1.76138 -1.74743,-1.25902 -1.78429,-2.61494 -0.11964,-4.40359 0.70231,-0.75466 1.27694,-1.58911 1.27694,-1.85435 0,-0.26522 0.4918,-0.65905 1.09288,-0.87516 1.48667,-0.53452 1.98533,0.58884 1.37428,3.09586 -0.35813,1.46928 -0.32185,2.43388 0.12737,3.38465 0.34551,0.73133 0.48898,1.74068 0.31883,2.24298 -0.37284,1.10068 -1.67475,1.19984 -2.24485,0.17099 z m -6.19757,-9.5486 c -0.3911,-0.17877 -0.64292,-1.40787 -0.64292,-3.13806 0,-2.2232 0.2189,-2.97688 1.00259,-3.452 0.55142,-0.33433 1.30528,-1.32675 1.67524,-2.20543 0.52281,-1.24172 1.08976,-1.63711 2.54506,-1.77487 1.34364,-0.12723 1.94632,-0.49744 2.13412,-1.31097 0.14395,-0.62352 0.66,-1.13367 1.1468,-1.13367 0.75713,0 0.84779,0.43967 0.62714,3.04107 -0.18394,2.16862 -0.53471,3.21335 -1.22269,3.64155 -0.53061,0.33027 -2.19473,1.97697 -3.69806,3.65937 -1.50331,1.68239 -2.7763,3.0382 -2.82883,3.0129 -0.0525,-0.0254 -0.38484,-0.17824 -0.73845,-0.33989 z m 314.23254,-5.55712 c -0.93619,-1.06052 -0.7397,-3.07317 0.41564,-4.2576 0.98521,-1.01 0.99143,-1.11067 0.13543,-2.18219 -0.85556,-1.07091 -0.85117,-1.16168 0.0941,-1.9447 0.54536,-0.45173 1.49766,-0.82134 2.11614,-0.82134 0.61849,0 1.42268,-0.40696 1.7871,-0.90436 0.56062,-0.76521 0.40417,-1.17175 -1.01673,-2.64188 -1.56046,-1.61455 -1.62618,-1.8281 -0.92895,-3.01769 0.94736,-1.61629 3.65944,-2.28723 6.19316,-1.53212 2.68014,0.79875 2.99141,2.09687 0.96283,4.01535 -0.89772,0.84901 -1.63224,1.81248 -1.63224,2.14104 0,0.32856 0.91217,1.06334 2.02705,1.63287 2.49775,1.27592 2.94009,2.4277 1.67297,4.35648 -0.76219,1.16022 -1.56583,1.55388 -3.67039,1.79795 -1.79971,0.2087 -2.85837,0.64406 -3.18785,1.31096 -0.47586,0.96326 -3.01714,2.74641 -3.91403,2.74641 -0.24035,0 -0.71478,-0.31463 -1.05424,-0.69918 z M 162.60905,135.96449 c -0.1776,-0.52422 -0.0802,-1.37636 0.2165,-1.89358 0.71185,-1.24118 5.09528,-1.02116 6.40492,0.32147 1.89459,1.94232 0.61448,3.40042 -1.60613,1.82944 -0.76239,-0.53935 -1.28675,-0.53935 -2.33172,0 -1.79528,0.92662 -2.29888,0.87834 -2.68357,-0.25733 z m 22.75387,-16.48011 c -0.18034,-0.33057 -0.45542,-1.85269 -0.6113,-3.38248 -0.25969,-2.54871 -0.15018,-2.92466 1.30861,-4.49274 0.87562,-0.94121 1.59202,-2.15453 1.59202,-2.69625 0,-1.31169 1.33443,-2.50826 2.31963,-2.07999 1.44489,0.62811 1.38768,2.03482 -0.17381,4.27322 -1.0413,1.49271 -1.68578,3.25629 -1.97766,5.41172 -0.30467,2.24983 -0.6844,3.25225 -1.28128,3.38249 -0.46657,0.10172 -0.99587,-0.0854 -1.17621,-0.41597 z M 340.63408,-9.51768 c -0.45184,-1.31742 0.83151,-2.91458 2.11546,-2.63272 0.81808,0.17959 0.77259,0.39289 -0.41583,1.94958 -1.19963,1.57139 -1.37131,1.64039 -1.69963,0.68314 z"
       id="europe_grey"
       inkscape:connector-curvature="0"
       inkscape:label="#path2996" />
  </g>
  <g
     id="g9"
     transform="matrix(0.06176756,0,0,0.06176756,166.76259,384.22429)">
    <path
       d="m 252.80595,58.995263 c -74.33984,0 -134.8198,60.479957 -134.8198,134.818927 0,29.94122 19.11958,78.75568 58.44806,149.23352 27.81935,49.84787 55.18095,91.41179 56.33056,93.15629 l 20.04118,30.378 20.04031,-30.37713 c 1.15047,-1.74537 28.51382,-43.30841 56.32968,-93.15629 C 368.50617,272.56987 387.624,223.75628 387.624,193.81506 387.62487,119.47522 327.14491,58.995263 252.80595,58.995263 Z m 0,203.793367 c -38.59557,0 -69.88469,-31.28825 -69.88469,-69.88469 0,-38.59644 31.28912,-69.88469 69.88469,-69.88469 38.59557,0 69.88469,31.28825 69.88469,69.88469 0,38.59644 -31.29,69.88469 -69.88469,69.88469 z"
       id="path11"
       inkscape:connector-curvature="0"
       style="opacity:1;fill:#455c7b;fill-opacity:1;fill-rule:evenodd" />
  </g>
</svg>
