<svg version="1.1" baseProfile="full" xmlns="http://www.w3.org/2000/svg" width="2048" height="2048" viewBox="0 0 2048 2048">
  <path fill="#ff328c" d="M823.495 1024c0,1.85433 -0.127559,3.69331 -0.316536,5.52874l508.173 254.075c22.526,-17.6929 47.7933,-32.1166 75.1512,-42.3107 29.2819,-10.9099 60.7902,-16.95 93.7123,-16.95 76.1646,0 145.112,30.8634 195.017,80.7686 49.9052,49.9052 80.7686,118.852 80.7686,195.017 0,76.1587 -30.861,145.104 -80.7591,195.02 -49.9441,49.9595 -118.898,80.8512 -195.026,80.8512 -76.1575,0 -145.078,-30.8799 -194.99,-80.8205 -49.8874,-49.9193 -80.7201,-118.876 -80.7201,-195.051 0,-1.90158 0.126378,-3.763 0.314173,-5.60434l-508.196 -254.008c-22.5945,17.6362 -47.8973,32.0374 -75.2977,42.2197 -29.2323,10.8614 -60.665,16.8874 -93.541,16.8874 -76.1233,0 -145.055,-30.841 -194.961,-80.7178 -49.9394,-49.9075 -80.8241,-118.814 -80.8241,-194.906 0,-76.1611 30.861,-145.106 80.7591,-195.02 49.9441,-49.9607 118.898,-80.8524 195.026,-80.8524 32.8689,0 64.3087,6.04252 93.5363,16.9193 27.3331,10.1717 52.6335,24.6047 75.2623,42.2953l508.243 -254.033c-0.191339,-1.87795 -0.32126,-3.77008 -0.32126,-5.68701 0,-76.0666 30.867,-144.997 80.8111,-194.923 49.8709,-49.8544 118.759,-80.6989 194.899,-80.6989 76.1127,0 145.032,30.8575 194.936,80.7308 49.9524,49.9217 80.8489,118.839 80.8489,194.891 0,76.167 -30.8587,145.11 -80.7556,195.023 -49.9441,49.9607 -118.899,80.8501 -195.03,80.8501 -32.9764,0 -64.4788,-6.05197 -93.7253,-16.963 -27.3851,-10.2165 -52.6418,-24.6662 -75.1465,-42.3733l-508.169 254.172c0.191339,1.87087 0.320079,3.75591 0.320079,5.6693z"/>
</svg>
